<svg fill="none" height="256" viewBox="0 0 256 256" width="256" xmlns="http://www.w3.org/2000/svg"><path d="m0 0h256v256h-256z" fill="#fff"/><path d="m39.975 42.8051c10.6727.4773 41.9658 15.9104 52.3583 21.3243 21.4297-7.2556 51.5977-6.9917 73.4167-1.2265 4.186-2.1822 8.411-4.2883 12.674-6.3177 9.65-4.5647 28.209-12.7615 39.096-10.222 6.292 1.4676 4.64 12.421 3.918 17.4719-1.82 12.7456-4.008 26.757-8.784 38.8349 7.817 11.931 10.278 25.405 8.936 39.448 10.397.226 19.08.561 28.737 4.616-9.742-.304-17.532-2.163-29.007-2.191-.64 5.866-2.581 12.023-4.72 17.497 5.092.576 31.242 4.805 31.744 10.825-1.138.2-7.926-3.155-10.582-3.885-7.452-2.05-14.603-3.207-22.173-4.568-2.875 5.741-4.629 8.745-8.554 13.802 6.177 2.671 24.481 12.188 29.229 16.687-6.639-1.86-19.959-9.076-26.806-12.479l-4.149-1.947c-4.753 5.6-10.201 10.57-16.213 14.789-27.068 19.089-61.888 21.711-93.7674 16.189-23.1996-4.019-35.8541-11.846-49.0616-30.797-12.0548 4.949-17.2477 10.214-27.6859 15.956 6.7744-8.04 16.8371-13.923 26.3113-18.207-2.1402-3.806-4.5409-8.557-6.0412-12.627-13.5872 2.515-21.4864 6.648-33.36414 9.604 10.95764-6.563 19.80584-9.458 32.17734-12.401-1.4914-4.703-2.9697-9.735-3.7619-14.596-4.0257-.115-25.06838 1.098-26.96938.058 3.25878-2.33 21.62558-2.775 26.51448-2.829-2.5086-17.427-.439-32.194 6.0515-48.3829l-.2028-.5558c-3.6558-10.2486-9.1957-39.5558-4.6632-50.2766.9364-2.2153 3.2008-2.9561 5.3419-3.5936z" fill="#262626"/><path d="m40.0322 47.3702c9.0235 1.1037 42.2928 15.9539 49.809 21.3884 5.3845-.8636 10.9628-2.3737 16.5428-3.2569 17.402-2.7549 37.412-2.8329 54.476 1.6062.634.7469 1.236 1.3896 1.904 2.1037 1.107.2359 1.931.057 2.973-.4698 14.757-7.4564 29.76-15.2332 46.23-18.0105 1.818-.3069 3.301.3055 4.625 1.4825 2.888 7.1664-6.333 43.6048-8.429 52.1562-.213.87 3.419 7.104 4.026 8.538 4.194 9.897 4.722 18.75 4.128 29.364-1.661.159-3.321.328-4.98.507-6.948.75-27.869 4.53-31.956 9.599l.114.69c1.804.562 7.287-1.772 9.442-2.546 9.149-3.287 17.528-4.957 27.191-5.727-1.253 6.318-2.428 10.233-4.805 16.225-4.459-.311-31.106-3.35-33.098-.607.825.893 3.755 1.816 4.936 1.839 8.647.17 17.571.046 26.141 1.62l.636.12c-2.349 4.408-4.89 8.028-7.769 12.048-.785-.324-1.574-.636-2.369-.935-4.217-1.588-17.302-5.701-21.52-3.785l-.284.861c.894 1.449.272.919 2.065 1.469 7.958.692 12.676 1.949 20.123 4.646-28.604 30.791-69.518 35.376-109.0242 27.184-18.1581-3.766-30.2367-10.96-40.4437-26.662 3.7502-1.547 20.9274-5.534 21.9844-7.591l-.9566-.522c-5.1103-.253-17.3906 3.889-22.6298 5.702-2.2313-3.952-3.8385-7.371-5.7488-11.461 6.6227-.994 12.5032-1.3 19.1585-1.186 2.4204.042 7.9113.418 9.6246-1.106l-.1448-1.023c-3.3877-2.529-24.7093-.188-29.6888.388-1.7548-4.731-2.6997-8.37-3.7282-13.276 3.7983.104 7.591.373 11.3659.807 5.1509.619 11.9982 2.385 17.0996 2.262.6362-.016.6479-.387 1.0299-1.042l-.5091-1.004c-4.2756-2.098-24.2398-3.746-29.4169-3.79-2.4648-12.269-1.1121-26.933 2.0407-38.992.9519-3.642 3.0649-7.3073 3.6446-11.0033-3.6895-6.1313-9.4037-42.8084-3.8091-48.6105z" fill="#fff"/><path d="m116.182 140.008c16.957-1.724 29.547 3.432 9.084 16.385-.363 16.655 13.355 18.262 25.251 10.874 2.077-1.289 3.14-3.104 5.467-4.122l.717.322c1.688 6.977-10.561 10.804-15.818 11.828-5.705 1.11-9.892.007-14.478-3.36-1.845-1.777-2.51-2.869-3.958-4.946-5.94 7.97-12.777 10.588-22.5895 8.254-3.0631-.728-9.8549-5.232-9.8563-8.5 3.937-.897 12.4698 6.813 17.5178 5.424 5.017-1.379 9.683-4.627 12.339-9.205.837-.99.887-4.091-.117-4.724-8.772-5.533-23.6118-15.22-3.559-18.23z" fill="#262626"/><path d="m193.281 81.0959-.891.7777-.489-.213c.475-1.9061.627-2.7679.821-4.7226l-.379-.1994c-1.535 1.5325-2.547 3.5974-3.645 5.5068l-.314-.0878c.066-1.2831.192-1.6847-.219-2.9001-2.643-.5161-4.195 2.3859-6.894.5278l-.061-.992c2.722-3.8824 13.246-7.9301 17.384-10.867 2.172-1.5423 6.04-5.3438 8.222-4.1196 1.643 3.7057-4.773 24.2314-8.225 25.7952l-.631-.6558c-.773-5.3592 2.227-12.3911 3.005-18.6135-1.887 3.3812-3.665 9.4719-5.856 11.9703l-.483-.27.404-2.2009z" fill="#262626"/><path d="m193.281 81.0959c.894-2.2308 1.422-4.0164 2.937-5.8721l-.049 1.0509.245-.6534-.579.1957.494.2971c-.269 1.2167-.846 2.5306-1.299 3.7179z" fill="#fff"/><g fill="#262626"><path d="m154.169 116.061c9.745-.248 16.627 13.63 5.942 18.823-11.226 1.188-14.896-13.027-5.942-18.823z"/><path d="m88.4638 116.112c11.0295-.558 11.6212 15.94.1747 19.066-11.6512-.471-9.6171-13.923-.1747-19.066z"/><path d="m53.875 70.1421-1.4797-.5834c-2.6927 2.0575 1.823 13.5139-.5553 17.8003l-1.0724.446c-2.6656-1.1943-2.5129-6.0561-2.6829-8.8469-.2083-3.4129-5.2775-17.0814-.5021-17.7862 2.5852 1.1532 3.8571 2.2905 6.2284 3.5899 4.6694 2.5587 10.5144 4.8431 14.613 8.2388l.3685 1.0318c-.667 1.2344-.1728.8047-1.6105 1.2354-1.688-.4363-2.802-1.0388-4.2467-.5643l-.9196 2.6395-.5666.2611c-1.0719-2.6353.0565-3.0668-1.3204-4.7787-.2326.079-.8305.2476-.9911.3774-1.1-.3339-1.2345-.5866-2.2378-1.2989l-.1957-.2121-.9449.0948c-1.4998-.559-.8225-.1205-1.8842-1.6445z"/><path d="m133.374 82.4598c3.193 1.1864 1.382 9.0393.861 11.9889l-1.004-.5362c-1.409-2.3756-.22-8.4849.143-11.4527z"/><path d="m118.881 82.1398.662.2457c1.297 1.2527 1.727 9.406 1.924 11.5966-.369.0018-.936-.114-1.322-.1742-1.294-2.3961-1.184-8.6479-1.264-11.6681z"/><path d="m148.673 73.378.574.2984c-.351 1.6623-3.933 8.0972-4.926 9.98l-.961-.3694-.25-1.0411c1.2-3.6091 3.243-5.9039 5.563-8.8679z"/><path d="m139.462 72.016.492.5348c.117 2.0322-1.965 8.5816-2.777 10.527-2.36-2.7507.833-8.2584 2.285-11.0618z"/><path d="m99.3742 74.3252c3.3788.3386 4.6748 5.6941 4.9398 8.555-1.765-1.2467-5.0589-6.2491-4.9398-8.555z"/><path d="m53.8753 70.1421c1.0616 1.524.3844 1.0854 1.8841 1.6445.0113 1.5619-.1779 3.4358-.2975 5.0258l-.0374-.2041-.6716 1.4157.6086-1.1729-.3895 1.3709-.4302-.3475c-.8552-2.7254-.6647-4.8758-.6665-7.7324z"/><path d="m155.581 74.0576.218.4684c-1.546 2.9001-2.631 4.9889-4.515 7.6858l-.566-.5189c-.154-2.1322 3.376-5.8166 4.863-7.6353z"/><path d="m111.866 72.9884c1.541 1.3461 1.751 5.0767 1.703 7.0575-2.763-.8085-1.925-4.7656-1.703-7.0575z"/><path d="m126.909 72.2967c.877.3975.493.0869 1.072 1.0243-.153 2.028-1.225 3.6077-2.192 5.4531l-.645-.2004c.056-1.8837 1.114-4.418 1.765-6.277z"/><path d="m109.469 86.0581c1.599 2.8151 2.174 6.0996 2.83 9.2486-2.384-1.5311-2.49-6.5241-2.83-9.2486z"/><path d="m56.8999 71.9039c1.0033.7123 1.1378.965 2.2378 1.2989-.2097 1.3643-.2345 2.6689-1.0337 3.7348-.8781-1.1201-.9902-3.5129-1.2041-5.0337z"/></g></svg>