<svg fill="none" height="256" viewBox="0 0 256 256" width="256" xmlns="http://www.w3.org/2000/svg"><path d="m0 0h256v256h-256z" fill="#fff"/><path d="m84.9649 57.8533c15.5561-.8622 34.1051 3.6334 46.2861 13.7086 10.217 8.4502 15.283 20.5124 16.508 33.4731.442-.492 1.162-1.238 1.693-1.653 2.54-1.983 5.097-5.343 8.018-1.974.471-.258.722-.356 1.084-.752.209-1.139.72-2.2421 1.764-2.8607 8.625-5.1081 19.437-6.6279 28.9-2.91 2.054.8065 4.465 1.6533 5.863 3.4366.799 1.0167.59 1.9661.404 3.1191 1.348.551 2.441 1.348 3.685 1.876.882.265 2.565.053 3.401.442 7.786 3.635 14.354 11.749 15.197 20.439.227 2.326.278 3.464-2.02 4.508 1.106 1.665 1.695 2.477 2.321 4.412.105-.015.209-.029.315-.042.807-.091 1.989-.073 2.541.517 3.01 3.217 3.077 13.688 3.355 17.932.787-.659 1.418-1.284 2.179-1.961 1.258-1.117 3.133-3.874 4.866-3.897.64-.009 1.13.29 1.556.748 1.531 1.644.893 5.553.352 7.495-.119.432-1.073 2.937-1.056 3.042.298 1.926.82 2.257.669 4.326-.221 2.995-1.016 5.619-3.369 7.633-2.775 2.375-6.376 2.88-9.899 2.603 1.648 2.457 3.774 4.416 5.144 6.944.434.803.54 2.4.067 3.236-1.841 3.312-6.308 5.87-9.622 7.455-6.317 3.02-22.871 5.496-26.105-2.647.174-1.881.776-3.788.999-6.024l-1.255 1.016c-1.197.914-2.771 1.811-4.143 2.415-3.74 1.642-5.659 1.436-9.27.057.739 1.388 1.788 4.733 2.27 6.326.255.835.17 1.674-.372 2.405-1.828 2.469-7.555 4.289-10.662 4.661-7.334.878-17.325 1.555-23.695-2.92-1.379-1.087-3.812-3.282-4.24-5.023-.321-1.303 1.403-3.797 1.567-5.11.159-1.25-.21-2.917-.396-4.16-1.703.781-4.06 1.558-5.899 1.861-5.827.956-13.237-1.229-17.22-5.678-2.888-3.226-3.379-6.624-4.057-10.71-1.042-.402-2.108-.84-3.14-1.264-10.7697-4.439-21.8364-6.458-33.1435-8.877-14.7139-3.148-30.4757-8.031-42.0644-17.948-4.5594-3.902-10.8964-11.499-11.7164-17.742-.2884-3.404 2.6448-5.954 4.5687-8.436.8027-1.053 1.4979-2.184 2.075-3.375 1.2869-2.676 2.8622-7.195 3.7137-10.0409 2.5216-8.429 5.4698-15.1924 11.4163-21.8351 7.1328-7.9676 15.4204-12.7052 25.6713-15.5556 5.6472-1.5703 9.0289-2.3435 14.8952-2.6911z" fill="#262626"/><path d="m84.9752 61.3334c5.6375-.5527 14.4151.3592 19.9018 1.7218 13.576 3.3715 25.292 9.2652 32.811 21.411 2.076 3.3895 3.689 7.0414 4.797 10.8582 3.629 12.0616 1.038 19.3016-4.278 30.4236-1.404 2.937-4.47 7.618-5.11 10.402-1.216 5.292 1.346 11.222 4.143 15.653-2.746 7.508-5.294 11.375-11.656 16.139-3.39-.836-5.068-2.772-7.964-4.048-5.666-2.498-11.251-4.541-17.157-6.373-21.4115-6.344-45.0285-7.142-63.2423-22.159-4.3856-3.898-9.9809-10.031-11.1499-15.903-.2622-1.318 5.3941-7.585 6.2764-9.795 1.1719-2.935 2.5284-5.862 3.4264-8.951 2.3716-8.1608 5.4568-16.0588 11.3288-22.3715 9.2285-10.4738 24.0772-16.1968 37.8728-17.0081z" fill="#fff"/><path d="m128.668 83.264c8.832-.6638 9.138 12.0406 2.918 13.2528-2.197-.3344-2.314-2.3029-3.555-3.2364-2.618-1.9687-4.95-3.1962-3.145-7.0864.73-1.5764 2.059-2.3901 3.782-2.93z" fill="#262626"/><path d="m129.421 84.6036c3.225-.0514 5.21 2.7726 4.992 5.7873-.15 2.0779-.655 4.9394-3.303 4.7685-.548-1.0662-.857-1.7229-1.667-2.6287-1.157-1.2935-3.482-2.1781-3.761-4.0294-.11-.7278.255-1.6643.719-2.1911 1.029-1.169 1.529-1.4937 3.02-1.7066z" fill="#fff"/><path d="m76.0541 107.467c2.6248-.131 6.7728.337 7.6952 3.559.5258 1.837-1.9108 2.716-3.3667 2.987-1.9739.132-3.9967-.032-5.7776-1.019-1.1587-.643-2.7394-2.386-1.7528-3.768.742-1.039 2.0001-1.463 3.2019-1.759z" fill="#262626"/><path d="m35.3682 108.095c3.7906-.086 7.231 2.885 2.7234 4.299-4.1667.842-6.8136-3.265-2.7234-4.299z" fill="#262626"/><path d="m137.036 94.8163c.925-.376 1.978.0717 2.351.9983.371.9265-.082 1.9786-1.01 2.3459-.922.3651-1.965-.0838-2.334-1.0043-.37-.9207.075-1.9665.993-2.3399z" fill="#262626"/><path d="m137.524 95.5451c.665.1125.804.2749 1.061.8409-.008.6129-.142.7275-.518 1.2273-.61.0224-.723-.0999-.977-.6094-.004-.653.154-.8857.434-1.4588z" fill="#fff"/><path d="m137.691 89.6695c.421-.1385.884-.0368 1.209.2655.323.3023.458.7573.349 1.1872-.107.43-.442.767-.871.8791-.635.1662-1.288-.2023-1.474-.8325-.185-.6302.163-1.2941.787-1.4993z" fill="#262626"/><path d="m54.8686 111.62.4321.191c.7182 1.028-.9073 2.287-1.694 2.865-.6102-.378-.7211-.435-.7424-1.163.3405-.876 1.2314-1.372 2.0043-1.893z" fill="#262626"/><path d="m46.8289 111.453c1.5883.217 2.5155 1.359 1.616 2.871-1.3205-.183-2.4222-1.515-1.616-2.871z" fill="#262626"/><path d="m159.04 101.786c1.625.569 10.428 16.728 13.393 17.89 1.094.43 11.926.941 12.587.361 4.1-3.594 8.153-12.429 10.179-17.334l2.854 1.704c-1.434 1.223-2.56 3.729-3.467 5.534-1.951 3.884-6.338 9.446-5.425 14.022.355 1.783 5.517 3.549 6.699 5.562.734 1.25 1.995 4.893 3.679 4.244 4.872-1.79 9.73-3.192 14.698-4.649.756 1.522 1.169 2.662 1.727 4.245-3.827.898-7.287 2.519-11.055 3.506-2.811.736-4.643-.868-5.177 3.535-.465 3.842-1.768 11.632-.026 15.141.704 1.417 9.436 2.533 11.269 2.737 3.653.599 6.661.687 10.322.774-2.6 1.533-9.06 3.804-12.09 4.237-3.611-1.513-6.869-3.519-10.502-4.973-2.498-1-3.532-.32-5.809.829-4.905 2.476-10.932 3.777-15.299 7.129-.577.443-2.541 5.162-3.18 6.315-1.665-.955-3.285-1.988-4.855-3.093.689-.746 1.984-2.361 1.22-3.312-1.265-1.575-3.105-3.151-4.537-4.595-2.279-2.281-4.471-4.646-6.573-7.091-1.574-1.814-2.507-4.158-4.202-5.753-.759-.714-3.168-1.122-4.318-1.448.047-1.284-.176-2.637-.427-3.89 1.48.766 3.31 1.421 4.25-.585.837-1.783 1.515-3.692 2.294-5.514 1.545-3.673 3.263-7.272 5.147-10.783 1.143-2.105 2.605-3.87 3.767-5.924.371-.655.507-1.463.171-2.17-.743-1.57-2.423-2.905-3.314-4.394-2.192-3.664-3.509-7.468-4.972-11.435.142-.381.605-.591.972-.822z" fill="#fff"/><path d="m170.383 122.465c3.615-.401 7.962 2.273 11.403 3.554 2.986 1.112 5.966 2.43 8.997 3.584 2.252.858 5.843 5.198 6.813 7.433 1.19 3.149-1.162 8.084-1.975 11.204-.641 2.21-1.091 4.495-1.953 6.627-.861 2.129-4.574 2.163-6.637 2.641-2.191.51-4.349 1.155-6.46 1.933-2.072.763-8.719 3.663-10.573 2.948-1.888-.729-9.107-9.165-10.637-11.176-.986-1.294-1.98-2.695-2.641-4.184-.675-1.516-.453-2.527.136-4.022 1.901-4.822 6.497-14.288 9.758-17.875 1.079-1.187 2.299-2.034 3.769-2.667z" fill="#262626"/><path d="m170.734 126.171c1.123.167 3.144.772 4.322 1.037 5.003 1.125 10.053 2.807 15.162 3.3 1.652 2.148 4.115 4.637 5.308 6.992.514 1.017-.734 2.701-1.153 4.032-1.152 3.663-1.287 9.789-2.812 13.075-5.118 1.115-5.591.936-10.691 2.821-2.89 1.02-7.53 3.464-10.354 3.275-.757-.529-10.93-13.883-11.496-14.991.829-2.415 9.902-17.894 11.714-19.541z" fill="#fff"/><path d="m139.092 136.701c1.584-.115 2.706.107 4.219.513 4.425 4.047 4.409 7.979 4.105 13.379-.609 10.834-7.919 14.115-15.289 20.155-.636.521-2.155 1.693-1.773 2.566.683.236 3.001-1.806 3.744-2.331 2.47-1.745 5.132-3.199 7.934-4.332 4.715-1.939 8.145-2.086 13.032-.95 7.438 1.731 12.637 7.846 19.476 10.834 1.518.642 3.824 1.058 5.462.631 6.852-1.786 10.04-8.302 16.78-10.979 6.3-2.499 12.688-.434 18.628-1.914 1.299-.337 2.567-.785 3.788-1.337 3.023-1.361 6.122-3.397 9.346-4.056 1.189-.179.849 2.239.764 2.872-1.123 8.421-11.18 7.812-17.129 7.027-13-1.032-17.743 3.522-27.331 11.469-1.069.886-3.147 2.802-4.542 2.873-6.119.138-11.615-6.029-16.284-9.183-8.461-5.718-14.034-3.087-22.091 1.536-2.302 1.32-5.349 3.338-7.894 4.087-5.264 1.553-12.544-1.049-16.206-4.972-2.093-2.251-1.942-4.499-1.73-7.336 1.589.929 3.14 2.361 4.649 3.512-1.104.505-1.542.714-2.531 1.396 7.48-.511 14.897-6.882 18.586-13.154 2.456-4.151 3.706-8.905 3.613-13.727-.016-.923.022-3.289-.855-3.783l-.288.116c-.6.928-.638 3.645-.728 4.913-1.467-3.551-2.51-5.418-2.111-9.361.856-.215 1.778-.333 2.656-.464z" fill="#fff"/><path d="m153.97 174.071c2.724-.233 6.676 1.721 9.118 2.932 7.146 3.544 9.786 6.896 12.136 14.486-3.298 1.703-8.64 2.785-12.252 3.395-6.335.968-17.241.732-21.283-5.081 1.63-3.766 1.624-7.195 1.486-11.218 3.696-1.381 6.362-3.633 10.795-4.514z" fill="#fff"/><path d="m148.617 187.258c3.702.174 7.293.731 11.084.521 1.349-.076 9.936-.348 10.482.259-.374.327-.681.269-1.246.348-3.992.298-8.198 1.397-12.244 1.008-1.284-.124-7.393-1.317-8.076-2.136z" fill="#262626"/><path d="m154.07 103.952c.038.026 3.536 7.507 4.328 8.727 1.725 2.662 3.732 4.418 5.598 6.815-.937 2.163-2.228 4.487-3.323 6.618-1.609 3.08-3.1 6.22-4.471 9.413-.684 1.606-1.999 6.488-3.042 7.264-1.18.332-2.671-.493-3.151-1.611-1.805-3.767-5.996-7.716-10.415-7.695-.517.002-1.03.002-1.548.014 4.678-8.284 7.953-15.013 9.487-24.408 2.387-1.397 4.264-3.488 6.537-5.137z" fill="#fff"/><path d="m178.166 96.1536c4.42-.2074 11.498 1.2431 15.102 3.8724-1.406 4.984-3.936 9.344-6.503 13.792-.982 1.702-1.877 3.37-2.594 5.201-1.836.168-4.303.044-6.141-.039-1.75-.041-3.499-.113-5.237-.334-3.358-3.068-8.886-14.319-10.406-19.0559 5.733-1.8394 9.759-3.0857 15.779-3.4365z" fill="#fff"/><path d="m211.68 171.249c1.599-.072 3.201-.097 4.8-.072 1.281 3.437 4.81 5.579 6.323 8.763-4.193 5.291-13.701 8.216-20.305 8.614-3.588.039-7.735-.082-10.627-2.434.418-2.458.533-4.712-.076-7.139 8.893-7.464 8.45-7.605 19.885-7.732z" fill="#fff"/><path d="m215.789 180.583.125.109-.065.266c-.148.115-.438.335-.603.414-7.125 3.427-14.535 4.825-22.123 2.789-.359-.136-.625-.219-.71-.589.631-.67 3.802-.349 4.752-.186 7.177 1.234 11.992-1.076 18.624-2.803z" fill="#262626"/><g fill="#fff"><path d="m200.173 105.971c3.095.91 6.912 4.634 8.982 7.133 3.098 3.739 5.521 8.105 5.606 13.081-1.597.787-3.49 1.345-5.155 1.992-2.002.778-3.984 1.601-5.968 2.421-1.558.675-3.13 1.316-4.715 1.921-2.48-3.852-4.379-6.393-7.918-9.28.886-4.522 3.813-8.173 6.288-11.969 1.213-1.859 2.262-3.098 2.88-5.299z"/><path d="m218.813 136.545c.345-.058.248-.042.608.003 1.003 1.613 2.429 16.925 2.396 19.251-4.731.527-12.416-.322-17.127-1.125-1.329-.334-2.476-.568-3.82-.821-.952-3.509-.91-11.948.269-15.426 6.241.035 11.603-.703 17.674-1.882z"/><path d="m151.17 147.687c.979.576 1.987 1.103 2.983 1.693 2.045 3.465 3.03 7.647 6.199 10.726 1.141 1.109 2.066 2.032 3.447 3.152 1.443 1.169 4.401 2.26 5.44 3.721.292.412-.342 1.464-.582 1.944-1.807-1.307-3.677-2.527-5.602-3.653-.369-.218-.745-.424-1.125-.621-7.241-3.738-11.666-2.646-18.731-.398 4.487-4.457 7.652-10.143 7.971-16.564z"/><path d="m196.576 159.515c1.199.197 3.657 1.261 4.876 1.753 2.204.888 3.835 1.441 6.12 2.039-6.206-.097-12.453.271-17.52 4.179-1.967 1.517-3.827 3.223-5.798 4.662-3.148 2.156-5.616 2.091-9.082.942 1.487-1.385 2.85-3.812 4.471-4.939 5.099-3.548 11.712-5.321 16.933-8.636z"/><path d="m230.724 148.88c.893 1.959-.148 5.369-.926 7.248-2.434.277-3.852.845-6.055 1.786l-.183-.06c.956-1.478.717-2.767.673-4.492 2.609-.942 4.484-2.669 6.491-4.482z"/></g></svg>