<svg fill="none" height="256" viewBox="0 0 256 256" width="256" xmlns="http://www.w3.org/2000/svg"><path d="m0 0h256v256h-256z" fill="#fff"/><path d="m153.876 21.0567c2.405-.1336 3.166.2388 4.672 2.3357 6.464 8.9988 11.209 22.2157 10.108 33.3681 27.555 20.2766 47.673 46.1885 45.913 82.1465-.745 15.124-4.866 34.66 4.521 47.949 1.117 1.591 2.595 2.3 3.34 4.251-.996 3.421-10.76 1.016-13.326.134 1.307 5.444 5.606 29.441-.745 32.42l-.81-.404c-.753-1.563-.66-4.089-.514-5.809.81-9.736-.158-18.69-1.935-28.256-1.651-1.21-3.21-2.546-4.659-3.999-8.533-8.594-10.456-21.872-10.452-33.453-26.988-9.299-17.144-28.6-22.685-50.147-1.66-6.4409-6.275-12.9947-12.254-16.1603-.214 2.3236-.154 5.8575-1.87 7.331-1.299-.1376-.749.1255-1.664-.9067-2.967-9.8449 7.522-20.22 11.225-28.2837 5.186-11.3062-.51-25.6524-6.379-35.5904-6.582 8.5981-18.225 9.9258-23.078 22.9646-2.542 6.825-3.291 12.8363-1.174 20.5195.34 1.2265.482.0243.129 1.5099-1.372.7286-.684.6396-2.129.3927-1.983-1.6273-2.348-4.3315-2.963-6.8129-9.145 3.2182-8.885 10.2375-17.091 14.2127-3.85 1.8702-9.869 2.9227-14.1154 3.3113-11.3993 1.0403-19.9042 4.2504-29.1378 11.2778-1.2589 6.1575-2.6191 12.4315-3.1898 18.6775-.7935 8.716 1.0808 12.246-2.5341 20.807-2.7082 5.878-5.7321 13.816-9.6951 18.961-8.4604 10.979-18.5886 25.892-10.9338 40.084 3.542 6.566 17.0342 13.48 24.3247 15.221 8.2054 1.955 16.257-.417 23.337-4.907 5.7159-4.452 9.0555-8.444 12.2133-14.994 1.307-2.716 3.145-9.225 5.408-10.686l.538.514c1.093 4.987-1.983 12.395-4.675 16.572-6.7403 10.448-14.1077 15.278-25.8349 18.168 21.1268 6.663 27.9069-14.277 42.4439-24.098 9.646-6.521 20.362-3.514 29.243-12.051 3.449-3.315 5.036-6.339 7.958-9.448l.555.178c.21.692.51 1.911.251 2.591-4.052 10.634-13.622 15.86-24.385 17.71-3.927.672-7.797 2.081-11.226 4.218l-.028.486c10.974 3.696 21.001-1.085 30.858-4.672.85-.311 1.486.405 2.057.919.583 3.971-10.06 7.072-13.387 7.744-6.769 1.364-16.124 2.226-22.362-1.251-.704-.392-.085-.287-1.036-.21-1.781 2.461-.98 4.303-1.599 6.788-2.291 9.197 1.749 21.402.931 29.903-.769 1.267-.255.83-1.542 1.417-3.344-.777-3.073-5.708-3.388-8.626-.899-8.202-1.134-15.699.125-23.9l-.542.627c-9.89 11.375-25.9119 25.851-40.7115 12.294-11.039-1.736-24.1183-6.578-31.4372-15.289-11.8243-14.067-1.4734-32.279 4.8658-45.605 2.4167-5.105 4.5945-10.319 6.5295-15.626 4.6674-13.022 6.2907-21.904 7.5618-35.59-1.9229-3.4047 3.5824-20.1879 5.1693-24.3452-15.33-11.0916-15.3988-30.749-8.8531-46.8602.7448-1.8337 1.7812-3.0036 3.6109-3.6837 2.4248-.1498 11.0309 6.7522 13.4678 8.4767 6.3231 4.4447 12.6947 8.8125 19.127 13.0954 2.3115-1.6597 4.7282-3.1575 7.242-4.4893 12.5777-6.6631 24.4987-8.8207 38.1647-4.5662 4.862-5.2827 10.23-7.2703 15.553-11.8163 3.218-2.7445 1.785-3.9994 2.898-7.0395z" fill="#262626"/><path d="m167.883 61.8488c27.122 22.074 44.063 41.5572 42.383 79.3012-.591 13.318-3.397 25.697 1.016 38.639 1.19 3.501 2.469 5.59 3.315 8.051-.951.17-.89.134-1.801-.235-.389-4.06-.895-3.173-2.87-6.655-2.239-3.999-3.866-8.306-4.838-12.787-4.149-18.71 2.547-42.165-9.168-60.11-.709-1.085-1.551-2.072-2.858-2.315-1.122 1.344 1.186 5.489 1.967 7.29 5.173 11.966 4.724 24.43 4.76 37.279.332 15.002.842 23.519 9.08 36.262-10.65-7.218-13.006-14.723-14.435-27.462-.377-3.364-.49-9.169-1.182-12.294-1.243-5.606-4.72-11.395-5.999-17.257-2.559-11.686-1.571-24.025-5.878-35.3471-4.093-10.7556-10.468-15.0628-20.544-19.5237 1.19-1.85 2.534-3.7728 3.777-5.6025 4.076 3.0562 6.914 6.0599 10.573 10.1889 5.425 6.1288 9.942 13.9901 15.257 20.2645.328.077.656.1539.98.2348l.429-.425c-.15-3.7566-4.542-10.1121-6.59-13.1562-5.327-7.922-11.225-14.9008-18.86-20.6855z" fill="#fff"/><path d="m119.897 42.3616c4.004-.5141 8.793.4372 12.65 1.4208-.793 1.4735-1.218 2.3358-2.218 3.6635-2.364-1.3642-13.371-.6639-14.852 1.7164l.279.8541c2.652 1.8905 10.217.842 13.46.3644l-1.368 5.0398c-7.149.51-23.88 3.368-25.981 14.5487-.105.5545.405.7043.907 1.0646 2.514-.6922 5.254-4.5622 7.57-6.6105 3.344-2.9591 11.318-4.5945 15.759-5.0034.526-.0486.676.4453 1.036.9756.033 1.6476.324 1.1254-.36 2.2467-11.229 1.8297-10.185 10.6099-19.589 14.5649-6.918 2.9065-15.8882 2.7728-23.9235 4.6754 3.291-2.4248 11.6462-7.0719 13.5933-9.4197l-.1659-.6235c-4.6391-1.4694-14.1803 5.4285-17.5402 8.5009-3.8497 3.5259-4.0238 4.9427-8.9422 7.6468-.7529.4453-.765.4331-1.5666.757l-.0607-.7894c4.9386-11.2455 20.4426-24.9238 31.2226-30.8582 2.0762-1.1456 10.2982-4.4164 10.0632-6.5983-.821-.4939-1.234-.6558-2.4-.2753-20.3457 6.5983-33.6962 21.4627-43.9944 38.7478 1.6516-7.8086 5.3272-15.0465 10.6545-20.9931 10.6868-11.8324 29.2509-24.7255 45.7669-25.616z" fill="#fff"/><path d="m158.904 77.3245c28.454 13.6743 18.492 31.3685 25.693 57.1705.619 2.222 4.688 10.452 4.012 12.039l-1.166-.271c-.765-.357-1.522-.721-2.275-1.101-16.581-8.432-8.797-31.199-14.266-45.719-2.999-7.9504-6.703-13.8767-14.487-17.7183.635-1.3763 1.696-3.0603 2.489-4.4002z" fill="#fff"/><path d="m58.039 31.9783c2.2993 1.259 7.3189 5.0641 9.6546 6.7076 6.1449 4.3355 12.3303 8.6142 18.5522 12.8404-3.3761 2.5381-6.6267 5.3394-9.8611 8.0597-1.8216-2.9956-11.1078-14.2532-14.8279-12.7959l-.6841 1.6395c-1.4816 7.0922 2.3843 14.747 8.2985 18.6615-1.9714 2.7041-3.117 4.5297-4.8091 7.4322-13.5934-11.877-12.6016-26.9802-6.3231-42.545z" fill="#fff"/><g fill="#262626"><path d="m150.505 45.0049c1.445-.0688 2.048-.255 3.246.5304 3.983 5.6025-6.558 23.8227-11.387 27.8505-5.922 1.9106-3.048-8.3228-2.299-11.1078 1.712-6.3919 4.489-13.7432 10.44-17.2731z"/><path d="m123.544 115.87 1.255.518c11.128-1.55 8.975 10.076 2.866 15.403-10.549 4.307-11.565-11.699-4.121-15.921z"/><path d="m83.7642 177.704c2.271.053 3.2628.21 4.5865 2.121 1.1334 4.481-3.2344 7.922-7.0598 9.173-2.186.445-2.6879.785-4.3638-.806-1.4573-4.246 3.457-8.699 6.8371-10.488z"/><path d="m43.4985 177.02c5.7564-.207 9.8935 6.367 6.3879 11.245-1.5545.19-3.2304.506-4.5581-.502-3.3397-2.526-4.1817-7.242-1.8298-10.743z"/><path d="m127.924 95.9212c4.202-.1781 13.201 2.8012 10.469 8.2258-2.259-.765-10.242-3.741-11.319-5.5257-.056-1.6111-.052-1.0971.85-2.7001z"/><path d="m165.154 184.096c1.498.392 1.684.461 2.174 1.773-.531 2.789-4.344 5.562-6.603 7.153-1.412-.527-1.615-.656-2.169-1.883.396-2.461 4.521-5.335 6.598-7.043z"/><path d="m155.9 199.507 1.183.526c1.582 2.866-4.368 7.153-6.538 8.618l-.826-.162c-2.109-2.214 4.38-7.258 6.181-8.982z"/><path d="m152.067 95.7917c1.474.0567 1.684-.0809 2.854.8096 1.546 2.3479 2.469 5.3597 2.239 8.1807-.94.138-.939.098-1.899.057-2.344-1.372-3.684-6.5011-3.194-9.0473z"/><path d="m68.0457 121.699c1.7366.203 1.8257.045 2.8174 1.3-.004 1.489-1.1739 4.129-1.5949 6.485-1.9511.251-2.1171.34-3.0603-1.235-.2186-2.109.8299-4.732 1.8378-6.55z"/><path d="m170.405 165.584 1.837.166c1.288.955.879.348 1.3 1.87-.267 1.607-.518 1.785-1.506 3.162-1.878.044-2.405.174-3.133-1.648.129-1.664.571-2.081 1.502-3.55z"/><path d="m145.525 225.823c2 .235 3.028.611 3.012 2.664-.733 1.445-1.291 1.578-2.716 2.36-.356.319-.668.319-1.211.477l-.672-.939c-.226-2.4.134-2.793 1.587-4.562z"/><path d="m155.492 152.246c1.182-.369 2.445.267 2.854 1.437.409 1.166-.178 2.449-1.332 2.902-.785.308-1.672.162-2.32-.38-.643-.539-.943-1.389-.777-2.215.166-.825.769-1.497 1.575-1.744z"/><path d="m176.189 150.027c1.587.13 1.963.122 2.915 1.292-.146 1.562-1.073 2.283-2.146 3.505-.53.276-.571.195-1.222.263-1.789-1.586-.757-3.521.453-5.06z"/><path d="m184.735 162.159c.692.324.769.438 1.392.895.364 1.822.628 4.424-.587 5.934-3.072-2.06-3.012-4.007-.805-6.829z"/><path d="m119.205 177.546c.676-.356 1.489-.32 2.129.097.636.413 1 1.146.947 1.903-.052.761-.514 1.433-1.202 1.757-1.032.481-2.263.056-2.773-.964-.506-1.024-.109-2.263.899-2.793z"/><path d="m186.73 176.259c.964.089.907.056 1.757.514 1.069 2.056.96 3.473.579 5.748-3.429-1.32-2.769-2.987-2.336-6.262z"/><path d="m63.9085 138.438c.6801-.34 1.4978-.279 2.1212.162s.9513 1.19.8582 1.947c-.0972.757-.5991 1.4-1.3116 1.676-1.0322.392-2.19-.089-2.6353-1.097-.4452-1.012-.0202-2.194.9675-2.688z"/><path d="m186.868 199.851c.413.145.692.38 1.073.627l.145.976c-.639 1.72-.837 1.838-2.076 3.262-1.498-1.02-1.065-.364-1.619-1.825.323-1.283 1.457-2.077 2.477-3.04z"/><path d="m194.211 189.241c2.785.425 3.336 1.579 3.644 4.129-1.721.417-1.571.36-2.704-.271-.814-1.243-.774-2.36-.94-3.858z"/><path d="m160.272 125.804c.935-.045 1.745.639 1.858 1.566.113.931-.51 1.79-1.429 1.968-.656.129-1.332-.118-1.745-.644-.417-.526-.502-1.239-.222-1.846.275-.611.87-1.012 1.538-1.044z"/><path d="m157.823 114.113c.749-.53 1.781-.372 2.332.364.55.733.417 1.769-.304 2.336-.481.381-1.133.474-1.7.235-.567-.235-.959-.761-1.028-1.372-.069-.612.202-1.211.7-1.563z"/><path d="m158.734 136.653c1.263.243 1.182.198 2.125 1.068.449 1.34.186 1.725-.247 3.073-1.413-.037-.793.174-1.927-.62-.526-1.376-.231-2.072.049-3.521z"/><path d="m49.538 160.022c.7894-.368 1.7326-.049 2.1333.729.4008.773.1214 1.728-.6396 2.161-.5182.296-1.1577.284-1.6637-.032s-.8016-.883-.7651-1.478c.0324-.599.3927-1.125.9351-1.38z"/><path d="m146.525 163.471c.66-.425 1.534-.292 2.045.304.51.599.497 1.481-.025 2.068-.409.457-1.044.636-1.631.453-.587-.178-1.012-.68-1.097-1.287s.194-1.206.708-1.538z"/></g></svg>