<svg fill="none" height="256" viewBox="0 0 256 256" width="256" xmlns="http://www.w3.org/2000/svg"><path d="m0 0h256v256h-256z" fill="#fff"/><path d="m116.345 34.5115c.252-1.3714.424-2.7566.513-4.1483.499-8.2708-4.349-20.0405-13.756-20.53184.786 2.76064 2.709 5.36894 2.424 8.43404-.559 6.0212-2.972 10.6353-7.3204 14.6529-.3922-1.2869-.6728-2.8559-1.052-4.2197-1.0157-3.5875-2.7456-6.9333-5.0835-9.837-2.4638-3.1152-5.7055-5.236-9.6785-5.708 2.6638 5.3984 2.1378 10.5949.5195 16.1907-1.5806-4.2197-5.4692-8.0235-10.028-8.7016.7715 1.9508 1.43 2.5141 1.9054 4.8892 1.1559 5.7109.1974 11.5242-.0208 17.2754-.2182 2.5832.2727 6.1698-.2 8.6558-.8144 4.2792-2.2872 6.566-1.4287 11.14.6273 3.3358 1.1429 4.8019 3.0288 7.7161-1.2079 4.0552-1.63 6.7977-1.0183 11.0437.5533 3.8468 2.4846 8.988 5.6498 11.3738.4584-.6597.5896-.8226 1.3052-1.1887.952.1986 1.604.4082 2.4872.8382 1.4741.8173 3.4236 1.7008 3.9146 3.4308.0376.1304.0714.2619.1013.3942-.0585 1.2031-.4299 2.2193-.8222 3.3537 1.6144.7871 2.1573-.6143 3.2977-.0052.1441-.3306.3467-.985.4727-1.3493.9533-2.917.6144-6.2328.7728-9.2905.174-3.3642.565-6.9045.3546-10.2518-.0611-3.0692-4.7783-6.4565-7.4473-7.2776-4.9769-1.5308-8.1849-3.8836-9.1993-9.4249-.6884-3.7685 1.5482-7.3518 1.8586-11.1177.2779-3.3686.0688-7.0102.0675-10.4152.0286-4.631.2961-9.0199-.1299-13.6434 2.4119 4.4871 2.4093 9.9735 3.2249 15.0624 2.9846-8.1022 7.3369-13.6849 6.0926-23.0947l.1455-.1966c.3948.1124.8442.5986 1.1144.9161l.5636.5749c.2117.2593 1.1715 1.476 1.3495 1.6412 3.6716 5.1471 4.986 8.2572 4.8574 14.7501-.0337 1.7271-.0493 3.6913-.3324 5.4129-.026.156-.0546.3113-.0871.466 6.0188-3.7973 12.0588-12.5452 13.4278-19.5464.54-2.7627.584-4.8415.435-7.6268 4.403 5.4645 5.99 10.4879 5.22 17.5158-.293 2.6085-.962 5.161-1.984 7.5789 6.254-2.1098 12.832-7.5857 16.549-12.9965-.856 6.0553-4.076 11.5248-8.955 15.2111-3.595 2.6815-7.769 4.7449-11.182 7.1455 5.654-1.2796 11.234-2.5061 15.774-6.4754 6.637.5277 10.965-.3708 17.068-2.7556-6.75 6.8553-18.25 12.963-27.609 15.3661-3.133.8045-8.224 1.2398-11.54 1.6238 3.453 1.2614 7.89 1.9588 11.564 2.789 10.9 2.4631 21.037 7.144 25.999 17.8124.348.7499.652 1.5192.912 2.304-5.201-2.082-6.116-2.1668-11.561-3.2964 4.239 2.4316 11.589 5.1017 13.446 9.8762 1.724 4.4335 3.268 10.6721 4.171 15.3427-5.386-1.113-13.114-1.89-18.143.937-2.103 1.181-4.555 5.118-5.976 7.074-4.45 5.075-6.905 8.483-8.266 15.338-2.412 12.147 1.826 24.724 8.609 34.791 4.486 6.692 9.785 12.803 15.774 18.192 1.986 1.822 4.567 3.752 6.335 5.431.359 1.626.515 3.298.836 4.938 1.813 9.285 3.471 18.532 5.688 27.738 2.257 9.46 4.771 20.826 13.394 26.611 3.807 2.555 13.14 4.748 15.989-.208 2.005-3.487 1.7-10.055 1.723-14.083.089-5.95-.035-11.9-.372-17.84-.141-2.546-.559-5.429-.521-7.935.054-3.61.827-7.364.925-10.99.443-6.575.44-12.796.418-19.369-.019-5.853.031-11.058-.73-16.921-.195-1.908-.448-4.128-.808-6.003.002-.399-.144-1.078-.217-1.497-.917-4.778-2.55-10.736-4.331-15.281-4.531-11.568-14.475-24.541-26.213-29.472-.082-1.034-.628-3.8999-.854-4.9516-1.357-6.3364-3.098-14.5564-5.49-20.5021-.808-1.9611-1.791-3.8455-2.937-5.6305-1.451-2.285-3.829-4.6185-5.75-6.5034 3.86-1.1602 6.89-2.3138 10.186-4.6821 4.169-2.9953 8.783-7.9249 9.687-13.0522-1.635.1953-3.268.6958-4.902.9728-1.681.285-3.193.2757-4.883.2754 3.913-4.884 7.518-14.9409 4.332-20.7857-1.794 2.2074-3.709 5.9648-6.284 7.4613-5.077 2.9497-11.491 4.6601-17.318 5.1934 2.505-3.6121 4.52-6.3214 4.945-10.8904.39-4.1843.679-7.9939-1.935-11.4705-4.088 7.0945-5.948 10.6509-13.062 15.4361z" fill="#262626"/><path d="m91.5557 98.2104c-.591.0235-.7455.1591-1.4326.1397-.1857-.6733.5819-1.6915.3611-2.699-.6767-.8002-1.3183.0945-1.8768.5601-.0584 1.2031-.4299 2.2193-.8221 3.3537 1.6144.7871 2.1573-.6143 3.2976-.0052.1442-.3305.3468-.985.4728-1.3493z" fill="#262626"/><path d="m181.371 149.891c.002-.399-.144-1.078-.217-1.497l-.073.656c-.963.483-1.288-1.226-3.271 1.841.573-.469 1.947-1.825 2.615-1.056.089.958-.562 1.766-1.131 2.452-.195.234-.392.467-.59.7.883-.516 1.507-.955 2.224-1.703.237-.269.302-.935.443-1.393z" fill="#262626"/><path d="m90.3231 21.6926c.5325-.7447 1.3118-.9669 1.4391-1.8153-.7403-.7707-2.0209-.3663-2.7885.1741.2117.2593 1.1715 1.476 1.3494 1.6412z" fill="#262626"/><path d="m88.4103 19.4765c.2675-.7806 1.0273-1.8263.3558-2.5227-.874-.1338-2.0416.8802-1.6156 1.8033l.1454-.1967c.3948.1124.8442.5986 1.1144.9161z" fill="#262626"/><path d="m139.344 104.82c-3.111-.306-6.242.022-9.148 1.297-2.313 1.014-5.665 2.723-7.364 4.614-.752.838-1.939 3.454-2.411 4.591-4.518 10.886-2.959 24.014 1.396 34.689 1.058 2.29 2.098 4.827 3.507 6.932 7.731 11.557 18.61 20.651 30.052 28.362 3.105 2.093 6.614 4.706 9.979 6.088-5.674-9.385-9.269-15.625-12.185-26.306l.104-.183-.154-.023.072-.119-.016-.03.064.078-.096.097.19.063c1.51 2.986 2.883 6.077 4.395 9.098 3.283 6.21 10.069 18.965 16.041 22.471-1.203-3.997-1.962-8.389-2.531-12.522 2.064 4.048 4.228 12.435 6.689 15.413 1.275-6.42 1.167-13.061 1.239-19.564.084-7.689-.372-15.099-1.299-22.723-.705-5.799-1.408-11.346-3.167-16.961-4.289-15.432-18.166-33.796-35.357-35.362z" fill="#fff"/><path d="m161.761 194.386-.087.029c-.513.821 5.52 27.989 6.204 31.36.989 5.004 1.951 10.014 2.885 15.028 1.748.832 4.893 2.376 6.427.513.935-2.274 1.141-6.757 1.201-9.212.142-5.32.029-10.644-.339-15.952-.295-4.347-.811-8.411-.803-12.788-1.782-.828-3.72-2.16-5.45-3.135-3.372-1.901-6.664-3.953-10.038-5.843z" fill="#fff"/><path d="m153.172 189.351c-1.037-.514-2.746-1.594-3.797-2.212.259 1.304 1.005 6.264 1.086 7.459.254 1.307.494 2.617.722 3.929 2.462 11.345 4.101 24.67 9.521 35.107 1.632 3.143 3.824 5.137 7.094 6.513-.812-7.053-2.729-15.741-4.065-22.824-1.471-7.925-2.657-15.9-3.556-23.911-1.447-.898-3.288-1.874-4.798-2.722.497 6.371 1.756 12.434 2.747 18.724.17 1.078 1.249 5.927 1.253 6.466l-.145-.007c-3.281-9.218-4.722-16.92-6.062-26.522z" fill="#fff"/><path d="m148.155 36.8184c-.302.2919-.862 1.0997-1.129 1.4717-5.404 7.5474-13.245 12.1956-21.646 15.7266-3.008 1.2647-7.528 2.3457-10.078 4.1492 9.556 1.997 19.781 7.0914 28.754.998l1.171-.9076c-6.648 1.1065-11.53.6816-17.871-1.9645 6.598.4614 14.311 1.2416 20.27-1.8356 1.44-.7437 2.653-1.6535 3.956-2.6016-4.329.6311-9.435.5634-13.777.089 2.406-1.317 5.649-4.8059 7.36-6.9907 1.296-1.6534 3.269-6.0644 2.99-8.1345z" fill="#fff"/><path d="m79.3393 72.9774c-.2779-.0665-.2623-.0537-.5429.0195-.0766.1132-.174.2466-.2078.3801-1.2754 5.0785-.6728 9.7265 1.4001 14.339.7884-1.9729 1.3014-3.2899 2.4872-5.0907 1.7443-2.4584 3.8613-4.5502 6.4679-6.0735-3.1391-1.7727-6.1042-2.6902-9.6045-3.5744z" fill="#fff"/><g fill="#262626"><path d="m151.183 198.527c-.228-1.312-.468-2.622-.722-3.929l-.063 1.052-.139-.082.004-.565c-.849.002-2.014 2.093-2.489 2.811.994-.61 1.618-1.357 2.393-2.224l-.028.198c-.174 1.181-.948 2.574-.632 3.237.467.126 1.301-.215 1.676-.498z"/><path d="m81.0366 88.2473c-.4948.0482-1.265.1608-1.3663.7365.4416.0465.6974-.1845 1.1611-.4141.3546.4121.8871.8364.6689 1.3804-.326.3335-.352.3531-.5546.766l.1234.0909c.6182-.2119.8507-.5165 1.3039-.9734-.5104-.7106-.7143-.9835-1.3364-1.5863z"/><path d="m84.4682 15.2818c-.2844.0176-.1441-.0145-.4052.1854.1715.8135 1.2702.1783 1.6975 1.1199.5117 1.1266-.7325 1.3129-1.065 2.0685.8338-.0754 1.8534-.771 1.5131-1.7079-.374-1.0287-.8611-1.1902-1.7404-1.6659z"/><path d="m144.535 36.4007c-.173.1026-.115.0673-.243.2395.859.6706 1.035 1.2284.499 2.2556-1.146.8261-2.057-.9467-2.495-1.1176.154.7094.574 1.4196 1.355 1.5305.467.0633.938-.0827 1.288-.399.304-.2714.475-.663.465-1.071-.014-.6643-.416-1.0294-.869-1.438z"/><path d="m116.846 124.02c-.591.144-1.57 1.306-1.812 1.864l.093.135c.531-.488 1.221-1.02 1.809-1.437l.072-.05z"/><path d="m132.899 102.462-.178.063.08.147c1.331.355 1.267.398 1.525 1.659.179-.007.163-.033.343-.127.284-.94-.921-1.647-1.77-1.742z"/><path d="m130.245 25.3712-.141.0259-.097.2043c.101.4783.327.7222.611 1.1232.082-.4582-.183-.8478-.373-1.3534z"/><path d="m91.0831 99.5597c-1.1403-.6091-1.6832.7923-3.2976.0052-2.8625 6.8351-6.4732 14.5291-7.9356 21.7741-.5286 2.554-.4702 5.207-.5728 7.763-.6481 16.277 9.3851 30.265 20.5377 41.12 2.9282 2.85 6.2822 5.484 9.5922 8.055-4.303-1.387-8.991-2.049-12.6092 1.29-1.5092 1.401-2.3924 3.348-2.4534 5.406-.1364 5.286 4.8029 7.972 9.5126 8.048-.905-1.672-1.725-5.309 1.209-5.419 2.364-.089 5.66.788 8.01 1.318 5.058 1.104 10.077 2.382 15.046 3.834.916.266 4.434 1.482 4.982 1.394.542-.421.707-1.041.455-1.684-1.667-2.014-21.564-6.906-25.359-7.529-1.925-.317-5.238-.948-6.908.395-1.5356 1.235-1.5836 2.938-1.8044 4.702-1.6469-2.13-2.7353-5.041-1.0741-7.327 2.9805-4.104 12.3505-.204 16.0215.764 6.607 1.762 13.032 3.917 19.467 6.208 3.743 1.333 5.989 2.743 8.352-1.217-3.806-1.083-3.53-3.216-5.58-6.056-.229-.293-.833-.861-1.243-.833-1.674.113-1.619 2.712-1.644 3.803-1.252-1.138-2.099-2.544-3.121-3.926-.578-.825-2.025-2.29-3.072-1.446-.761.613-.717 2.168-.759 3.073-3.181-1.555-6.861-6.069-8.735-6.777l-.21.106c-.184.872.231 2.568.416 3.503-13.935-8.051-24.9292-20.953-31.8492-35.39-6.9368-14.472-.2753-30.97 4.6263-44.9573z"/><path d="m136.856 183.864c-.442.193-1.368 1.179-1.362 1.704.567-.373 1.415-1.015 1.362-1.704z"/><path d="m138.134 185.74c-.492.222-1.029.882-1.177 1.398.718-.23 1.105-.678 1.177-1.398z"/><path d="m100.376 66.1078c-4.234-.3878-5.8068 1.6674-6.9251 5.3489 1.9339-1.91 2.8846-3.7563 6.177-3.5146 2.5051.1841 4.2711 2.7062 3.9361 5.1164-.16 1.1436-.774 2.1748-1.703 2.86-1.139.8357-2.359 1.0023-3.7189.8168-2.104-.4947-2.6677-.9836-4.2925-2.3913.8144 1.7597 1.8898 3.5531 3.8899 4.0235 8.1475 1.9163 11.4515-9.8501 2.6365-12.2597z"/><path d="m98.7914 68.9465c-1.856-.0613-3.4184 1.3752-3.5119 3.2291-.0948 1.8538 1.3144 3.4415 3.1651 3.5689 1.2287.0844 2.4054-.5003 3.0804-1.5294.675-1.029.742-2.3422.175-3.4344-.567-1.0923-1.679-1.7935-2.9086-1.8342z"/><path d="m100.735 70.6891c-.384.1463-1.3851 1.4719-1.4033 1.8975.7703-.3524 1.5793-.9898 1.4033-1.8975z"/><path d="m99.3223 69.4034c-.5377.1882-1.0365.6666-1.3832 1.1068l.1104.2706.1376-.0104c.5845-.4239.9637-.6998 1.1352-1.367z"/><path d="m103.634 121.969c-.237.15-1.615 1.476-1.806 1.725-1.439 1.883-5.6184 3.753-4.4702 6.382 2.1572 1.625 4.3082-2.41 4.9832-3.865.709-1.532 1.084-2.594 1.293-4.242z"/><path d="m87.8075 122.533c-.0896.094-.0961.162-.1507.296.1871 2.033.8598 7.656 3.8354 7.303 1.7832-2.028-2.3755-5.766-3.6847-7.599z"/></g></svg>