<svg fill="none" height="256" viewBox="0 0 256 256" width="256" xmlns="http://www.w3.org/2000/svg"><path d="m0 0h256v256h-256z" fill="#fff"/><path d="m115.604 33.2044c14.603-1.3214 45.615 3.8875 58.118 12.0754 3.7-2.3983 7.639-4.4898 12.317-4.4026 17.001.9493 37.235 13.6723 49.27 24.387 22.327 19.8748 7.424 41.9688-1.441 63.9468-2.624 6.513-1.193 18.906-7.094 24.049-8.573 7.473-17.186-.385-22.911-6.801.545 24.102-4.976 45.747-27.79 56.671-15.559 7.448-26.82 17.487-45.048 19.52-17.183 2.384-27.189-8.706-41.2337-15.643-12.7892-6.317-29.3408-10.359-34.1334-25.937-4.7341-15.388.7922-27.751-7.293-42.677-3.4713 5.513-9.4367 14.041-15.7088 15.302-23.0769 4.639-14.4041-29.515-16.8423-41.91-1.0311-6.416-3.6655-12.7916-5.5584-19.0238-5.40306-17.4703 7.5881-29.7166 20.7556-38.5871 9.2137-6.2069 19.1479-12.9294 29.8592-16.274 7.4206-2.317 13.9902 3.1012 20.1416 6.8685 11.3432-7.8267 21.3162-10.0136 34.5922-11.5642z" fill="#262626"/><path d="m81.6616 50.4925c22.6794-16.2336 47.7064-14.5457 73.4524-7.5297 5.248 1.4869 10.21 2.0438 14.499 5.7882 9.664 8.4343 6.387-5.8471 20.336-2.3286 16.733 4.2205 36.742 15.2366 47.307 28.905 12.157 15.7303-2.648 36.2926-8.004 51.5226-2.327 4.011-2.01 21.872-6.733 23.176-18.121 5.007-26.222-32.625-28.466-44.211-2.77-14.3065.774-45.7714-12.264-54.2573-1.573-.0112-.896-.2473-2.118.7099-.2 1.5638.516 2.6791 1.436 3.8763 8.861 11.5506 6.081 40.7784 9.012 55.7471 1.933 9.872 6.1 19.019 8.023 28.863-3.008-3.258-5.472-5.946-8.792-8.92 2.877 5.984 9.162 9.874 9.06 16.088l-.462.231c-3.004-2.853-10.161-10.453-12.97-12.366 3.89 6.215 8.534 11.926 13.822 17.006l-.346 5.906-13.471-15.55c2.512 6.429 13.52 17.233 12.487 22.181l-.715.47c-1.987-1.221-9.518-10.309-11.743-12.762 2.614 4.756 10.91 14.941 10.959 17.605l-.526.379c-1.426-.944-7.867-8.27-9.834-10.23 2.668 4.882 6.621 9.122 8.997 13.878l-.477 1.47-.701.094c-2.269-2.205-4.139-4.225-6.743-6.05 2.088 3.305 5.155 7.467 5.618 11.326l-.652.294c-2.795-1.697-3.637-3.474-5.682-6.031 1.368 3.457 3.315 7.356 3.515 11l-1.129.622c-3.296-2.311-3.691-4.134-6.057-7.147 1.11 4.08 3.681 8.07 2.761 10.74-.663.384-1.222.754-1.928 1.037-.979.81-.882.51-1.398 1.536-1.392 1.234-1.864 1.888-3.627 1.526-1.339-1.564-2.142-5.351-3.086-7.863.17 4.147.306 5.999 1.09 10.042-11.689 5.929-22.195 13.4-34.6 17.923-20.337 7.417-29.026-.738-45.8553-10.597-5.8885-3.386-12.3681-5.717-18.4669-8.7-10.1436-4.959-14.1976-8.352-17.9225-19.001 3.0545-3.254 5.7156-6.855 7.9294-10.729-2.2843 1.879-6.204 6.454-8.0555 7.268l-.5234-.563c.3924-2.2 11.369-13.426 13.8062-18.054-4.2896 3.653-9.9819 10.269-13.7137 13.018l-.3929-.242c.7858-2.794 11.2152-14.279 14.0034-17.852-3.6387 2.877-11.9016 11.259-13.7667 12.492-1.3968-4.595 9.5311-14.431 12.5004-19.169l.4017-.649c-3.2732 2.548-11.6383 11.851-13.4299 12.347-1.3963-4.597 7.2206-12.269 10.0618-16.869l.3652-.6c-3.8953 3.427-7.6149 7.42-11.241 11.158l-1.224-3.73c1.9893-2.046 9.3204-10.003 10.8004-12.336-4.1285 2.455-7.6227 6.926-11.611 9.118l-.1524-.278-.1377-.055c-.2196-1.708-.1524-1.154 1.295-3.03l-1.1908-1.62c-.4518-5.441 7.091-11.062 10.2458-16.187l.4518-.72.2648-.436c-4.1042 2.98-7.1187 6.426-10.4639 10.221.4158-8.714 6.0419-18.385 8.1149-27.383 2.7278-11.8423 3.6416-23.4889 6.9021-35.1617 1.3793-4.9376 9.1777-11.7127 8.924-14.6114-3.1003-2.1227-8.3033 4.9527-9.96 7.7001-6.9552 11.666-6.0979 24.0194-9.184 36.9531-3.1203 13.0779-15.3228 47.9489-29.1728 52.2939-14.9975 4.703-8.6329-30.171-10.5735-38.692-2.981-13.0838-12.46247-27.5936-1.2084-39.8968 9.2405-10.463 31.7823-25.4868 45.4196-29.148 5.9532 2.3442 11.0783 6.4022 16.9094 9.0443z" fill="#fff"/><path d="m54.9917 136.516c3.1952-2.84 6.4489-6.197 9.6183-8.888-2.2751 3.161-5.6831 7.723-8.4275 10.508z" fill="#262626"/><path d="m181.735 193.561c-1.085-2.846-1.64-5.712-2.307-8.683 1.266 2.366 2.502 4.749 3.705 7.147-.979.81-.882.51-1.398 1.536z" fill="#262626"/><path d="m126.84 135.464c5.314-.394 17.86.58 20.43 6.027 4.499 9.532-9.454 17.018-16.002 20.672-.224 3.973-.526 7.942-.901 11.904 6.173 9.807 14.717 17.334 26.991 13.674 9.216-2.749 13.233-13.311 16.646-21.162.428-.99 1.324-1.06 2.215-1.154.847 1.213 1.275 3.582.793 4.913-5.783 16.012-14.951 25.104-32.239 22.36-2.308 6.256-4.961 7.779-10.896 10.012-10.602 1.422-19.919.319-23.45-11.32-.478.11-.957.217-1.436.321-13.7009 2.978-24.2944-1.454-26.9107-16.318-.3481-1.979-1.1685-6.484-.0784-8.022 3.8227 1.305 3.5876 13.519 9.6674 17.429 14.1267 9.087 26.7277-2.036 34.8587-12.633-.174-3.524-.437-7.09-.2-10.605-6.564-2.62-23.663-10.776-16.952-21.087 2.575-3.956 12.766-4.614 17.464-5.011z" fill="#262626"/><path d="m127.445 179.535c4.437 5.841 6.423 7.653 12.67 11.51-3.292 5.96-5.789 6.518-12.146 7.434-7.726-.853-10.282-1.185-13.413-8.666 6.305-3.704 7.692-4.851 12.889-10.278z" fill="#fff"/><g fill="#262626"><path d="m159.18 103.069c8.705-.657 9.406 9.582 8.3 16.067-.584 3.416-1.981 5.032-4.849 6.855-8.013.429-9.717-6.486-9.079-13.335.452-4.867 1.884-6.71 5.628-9.587z"/><path d="m89.5152 103.08c12.0658-1.022 12.7398 16.05 5.1105 22.74-12.6085 1.809-11.2658-15.892-5.1105-22.74z"/><path d="m41.2417 62.0494 1.1427.4552c.87 3.2031-13.796 11.1305-16.5462 15.7449-5.9041 9.9055 1.6957 15.3013-1.0244 24.2485-.629.098-.277.128-1.0141-.31-.0122-5.831-3.3135-11.7097-2.5871-18.8747.9362-9.2347 12.4371-15.519 20.0291-21.2639z"/><path d="m215.323 69.0777c5.614 2.1991 12.761 8.8675 15.132 14.4941 3.169 7.5087 1.976 14.5428-.872 21.7242l-.842-.005c-1.889-1.651-.282-4.421.204-6.7845 1.062-3.8203.955-6.684.546-10.5759-.867-8.167-11.437-13.019-14.168-18.8529z"/><path d="m87.8429 80.2758c2.5155-.2508 5.0447-.5726 6.1499 2.1767-1.3106 2.9591-7.3749 2.7755-11.223 7.7225-1.4264 1.3885-1.8928 2.053-3.7229 1.3193-2.0696-5.3899 4.6631-9.4576 8.796-11.2185z"/><path d="m160.007 78.4433c5.312.1553 14.825 6.9318 11.582 13.3257-1.577-.4538-11.991-8.3077-12.629-9.5058-.194-1.781.224-2.2308 1.047-3.8199z"/><path d="m226.225 112.749c.219.235.598.495.486.863-2.706 9.005-5.121 17.943-4.761 27.503 0 0-1.061 1.463-1.173 1.614-3.642-6.316 1.748-23.95 5.448-29.98z"/><path d="m112.966 47.7847c3.137-.4022 4.719-.6768 7.698.3568l-.018.4508c-3.311 1.2503-11.482 1.7293-16.665 3.1393-3.733 1.3354-6.074 2.0769-9.9143 3.0043 6.2103-4.4551 11.4693-5.8724 18.8993-6.9512z"/><path d="m152.344 50.178c5.482-.3067 17.157 3.8744 18.754 9.4732-3.213-.6295-8.213-4.7259-11.884-5.7731-1.996-.5691-6.242-1.7502-6.87-3.7001z"/><path d="m180.635 94.6535c1.509 1.1797 3.466 14.4405 3.257 16.7615-4.387-2.392-4.114-12.4134-3.257-16.7615z"/><path d="m173.576 62.9521 1.334.7103c2.721 3.7502 4.737 9.8885 4.722 14.5156l-1.309-.2128c-1.5-1.4245-3.9-12.4459-4.747-15.0131z"/><path d="m164.939 197.515c.516.105.842.312 1.334.542l-.088.915c-2.975 2.6-8.043 3.34-11.874 3.716-.818-.554-.419-.2-1.13-1.123 1.767-1.235 8.515-2.502 11.758-4.05z"/><path d="m124.969 47.8791c3.412-.5599 13.101-.9469 15.442 1.9596-2.166.4766-13.284-.8949-15.442-1.9596z"/><path d="m28.7066 128.037c4.1777.893 2.9363 4.434 1.7829 7.175-4.165-.893-2.927-4.462-1.7829-7.175z"/><path d="m26.169 111.527c1.7488.902 1.6115.952 2.1845 2.289-.0871 1.668-.4221 1.934-1.3612 3.294-1.3126-.988-1.2172-.946-2.0531-2.38.1334-2.093-.0331-1.327 1.2298-3.203z"/></g><path d="m53.8001 128.301c.5677 2.954-.702 3.853-2.5521 6.009-.0014-1.654 1.7313-4.473 2.5521-6.009z" fill="#fff"/></svg>