<svg fill="none" height="256" viewBox="0 0 256 256" width="256" xmlns="http://www.w3.org/2000/svg"><path d="m0 0h256v256h-256z" fill="#fff"/><path d="m113.642 29.5121c.012-.0014.024-.003.037-.0046 10.593-.5641 18.606 1.3629 26.861 7.9856l-1.952-4.9853c8.533 2.7557 11.69 8.7237 14.353 16.6321.274-3.799.392-7.8903.573-11.7153 3.293 3.3882 5.794 9.0722 6.312 13.7338.179 1.612.093 3.5489.061 5.1865 1.164 1.2305 6.261 4.5941 7.873 5.5002.023-.0175.046-.0351.068-.0525 6.361-5.8431 10.93-13.5938 20.23-15.0979 5.991-.969 11.176.47 16.231 4.0779 16.599 11.8471 16.974 38.6625-.05 50.3054-1.283.879-6.515 3.671-6.989 4.334.247 1.554 3.747 8.141 5.184 9.446.664.6 3.403 1.442 4.429 1.876 4.83 2.047 8.527 4.547 11.811 8.693-1.467-.114-3.498-.08-5.003-.09 8.01 6.758 13.402 14.951 14.621 25.596.216 1.89.535 3.53.421 5.461l-3.239-2.967c3.088 11.815 3.172 22.364-2.406 33.517-7.727 15.454-22.732 25.462-39.812 27.263-5.044.532-10.104-.309-14.852.249-8.118.955-18.951 4.098-26.715 6.686-2.023.683-12.032 4.877-13.207 4.858-1.958-.033-6.423-2.451-8.539-3.257-5.951-2.245-12.038-4.112-18.225-5.587-4.3092-1.062-9.5551-2.287-13.9459-2.724-2.0844-.058-4.2498.137-6.3292.216-17.3933.669-36.1266-8.438-45.097-23.593-4.8935-8.266-7.834-18.757-6.674-28.416.3714-3.092 1.1909-6.107 1.9519-9.137l-3.3867 2.788c-.0025-.184-.0019-.367.0018-.551.2282-12.996 6.0249-21.819 15.0599-30.476-1.7816.205-3.0542.195-4.8493.202 3.3581-4.021 6.6688-6.628 11.5781-8.635.795-.325 4.0259-1.342 4.6922-2.027 2.1005-2.459 3.9554-6.046 5.0888-9.061.3227-.858-3.3502-2.442-4.0021-2.771-9.7826-4.9349-15.8672-16.3985-15.5921-27.2194.2016-7.9284 3.882-17.2746 9.6773-22.7671 4.3209-4.036 10.4545-6.8839 16.4511-6.5637 10.0418.2923 16.4914 8.5597 22.8113 15.4517 1.7974-1.2624 3.5858-2.5279 5.4353-3.7298 2.1877-1.4219 4.962-2.5307 6.7256-4.4828 1.627-1.8 1.76-4.4309 2.63-6.6051 1.133-2.8346 3.264-5.6563 5.487-7.7458.218 2.2403.488 4.4753.81 6.7031 1.308-1.85 4.529-5.5744 5.381-7.0421-1.779-2.8319-5.991-6.0747-8.405-8.7976 2.134-.2902 4.276-.5104 6.424-.6603z" fill="#262626"/><path d="m116.087 33.3007c6.739-.0646 12.497.8099 18.269 4.6526 5.171 3.4434 8.565 8.352 9.75 14.4758 1.407-4.3274 1.308-6.2048 1.189-10.6442 4.916 6.4014 3.722 10.5468 3.145 18.2711 4.113-3.7703 4.831-4.7472 7.62-9.5544.389 8.0935-1.76 11.229-3.71 18.766 1.186-1.1582 2.221-2.1024 3.244-3.4318 1.019-1.3228 1.849-2.8328 3.025-3.9877 3.119 1.3141 10.3 7.8304 13.787 9.9837-.627-1.4895-1.689-3.3274-2.458-4.813.637-1.2034 2.458-3.2393 3.401-4.2764 3.899-4.2912 8.287-9.3339 14.012-11.0626 10.804-3.2623 21.055 6.3774 23.626 16.2774 1.936 7.2982 1.796 14.9429-2.039 21.6561-3.055 5.3461-8.684 10.0812-14.644 11.7217-.33-.723-.568-1.4877-.824-2.2413 5.085-2.166 9.868-6.1282 11.867-11.4402.45-1.1929 1.509-4.7171 1.338-5.8495l-.224-.0232c-1.05 1.4383-1.554 3.8396-2.518 5.6499-2.234 4.1954-5.963 8.1039-10.435 9.9319-.481.144-1.216-.5916-1.49-.9215-2.172-2.628-3.58-5.479-6.486-7.385 1.694 3.4315 4.064 9.8982 5.599 13.6859 1.276-.114 2.806.794 3.534 1.814.011.583-1.246 1.987-1.727 2.632l3.185 7.936c-5.656.432-7.894 1.158-12.891 3.771 9.263-1.017 16.046-.981 24.428 3.275-1.221.576-2.504 1.116-3.745 1.656 8.691 5.531 14.769 12.096 18.126 21.903-1.747-1.047-3.376-2.01-5.171-2.972.629 2.125 1.844 4.794 2.604 7.012 2.358 6.697 3.24 13.825 2.586 20.893-1.102 11.451-6.064 20.589-14.899 27.889-12.527 10.348-26.073 12.127-41.812 10.204-5.239-.64-10.908-1.706-16.093-2.212 3.152 2.148 6.033 3.118 9.532 4.5-5.16 1.394-8.652 1.968-13.976 3.763-4.381 1.478-12.368 4.828-16.407 5.735-2.81-.872-6.932-2.798-9.99-3.892-6.519-2.305-13.198-4.133-19.9829-5.469 2.4319-1.064 7.4859-3.13 9.5319-4.486-1.363.058-2.676.246-4.02.46-13.0843 2.095-26.2388 3.958-39.1451-.198-13.9594-4.495-25.6837-16.268-28.9329-30.735-2.1061-9.376-.9927-19.95 2.6055-28.827.6037-1.479 1.2701-2.936 1.7619-4.457l.074-.233c-1.7154 1.023-3.4482 2.017-5.1973 2.982 3.6799-9.907 8.9987-16.188 18.038-21.856-1.1677-.397-2.582-1.069-3.7317-1.577 6.3268-3.499 10.6208-3.862 17.6269-3.686 2.4263.061 4.6903.037 7.1537.278-4.3566-2.532-8.285-3.379-13.1832-3.744l10.5629-26.1338c-2.3984 1.6367-3.9145 3.6154-5.4578 6.0094-.4451.6905-1.1624 1.8282-1.7079 2.3476-.8255.1167-1.4559-.2104-2.1713-.617-6.7759-3.8514-9.4187-8.539-11.4924-15.6164-.733 8.6101 5.7245 14.5979 12.8306 18.1171-.7465 2.3731-.7622 2.3371-2.9869 1.3461-6.8218-3.0378-12.4205-8.5018-14.5258-15.8268-2.0221-7.035-1.5552-15.3769 2.0716-21.8361 2.8205-5.0228 7.2988-9.6805 12.972-11.3021 3.9793-1.1707 8.263-.6836 11.8779 1.3503 4.4426 2.4854 7.672 6.353 11.0438 10.0351 3.8667 4.2224 3.2697 4.2942.2412 8.9761 2.193-1.2446 6.168-4.6928 8.4682-6.4114 3.3109-2.4736 5.7179-3.9523 9.2681-6.0182.296 3.7979 2.653 7.5995 4.107 11.0214 1.106 2.6051.413 5.8575.039 8.5774 3.476-.9549 5.702-2.3131 8.501-4.5214-1.553 4.5576-2.582 6.2631-5.078 10.4645 10.108-.4625 18.082-2.8188 26.216-9.0148l-.699 2.8284c7.752-.4033 15.807-6.0077 17.071-13.9701-4.428 3.5681-6.029 5.9792-11.825 8.8628.267-1.5737 2.184-10.7357 1.749-11.4208l-.349.1036c-5.448 10.7032-13.758 15.7068-25.301 18.1163 2.995-6.268 3.638-12.1435 3.22-18.9652-2.455 4.93-4.422 8.113-9.135 11.2478.134-4.2112.327-10.8005.775-14.9093-1.927 2.4458-2.716 4.9956-3.787 7.8853-2.703-4.4677-2.283-12.2106-.039-16.8064 1.113 1.9896 2.21 3.9886 3.29 5.997 2.14-5.7111 3.014-7.8222 7.276-12.385 1.727 2.4535 3.399 6.4748 4.634 9.2811.207-8.2699-1.245-12.2137-6.586-18.6128z" fill="#fff"/><path d="m191.131 102.742c1.276-.114 2.806.794 3.534 1.814.011.583-1.246 1.987-1.727 2.632z" fill="#262626"/><path d="m125.785 142.221c3.791-.341 9.98.629 13.2 2.449 6.921 3.914-2.668 12.236-6.641 13.871-3.558 1.462-2.673 1.977-2.667 5.079.01 5.09.501 7.346 5.229 9.799 4.057 2.122 8.807 2.493 13.144 1.023 4.164-1.366 7.89-4.728 9.855-8.638-2.597-.865-6.922-2.182-9.204-3.387 2.344-.115 5.2 1.136 7.767 1.379.197-.137.194-.113.336-.306 2.045-2.783 5.23-1.241 6.766 1.12.424.652.733 1.473 1.028 2.177 1.392.927 4.693 2.253 6.424 3.164 4.021 2.119 15.593 9.024 18.583 12.239-2.753-1.034-5.225-3.097-7.782-4.586-4.993-2.907-12.362-7.335-17.785-9.152l-1.928 2.11c-.46-1.095-.929-2.184-1.408-3.269-2.613 4.21-7.039 9.525-11.785 10.599-5.866 1.329-6.616.899-9.395 6.691-1.18 2.458-4.318 3.935-7.058 4.586-8.569 1.61-14.282-1.408-17.199-8.921-.797-1.564-3.657-1.427-5.142-1.789-6.823-1.657-10.016-5.507-13.5506-11.178-.7465 1.15-1.0282 1.905-1.5126 3.185-.5209-.622-1.0759-1.549-1.955-1.639-2.5238-.258-15.1558 7.06-17.9631 8.791-1.2492.771-4.6884 3.326-5.8448 3.561-.1158.024-.2317-.048-.3478-.07l.0948.175-.2038-.067c1.1656-1.797 13.4948-9.387 15.7954-10.544 1.898-.954 5.5233-2.701 7.6226-3.738 1.6352-2.908 5.1985-7.534 8.2589-3.122 2.621-.556 5.568-1.278 8.188-1.61-2.908 1.756-6.891 2.17-9.4909 3.736l.0989.202c1.633 3.39 4.744 6.024 8.676 7.91 5.677 2.723 16.599 1.014 19.035-5.677.54-1.483.331-5.999.405-7.698.036-.852-1.544-1.514-2.175-1.87-10.236-5.107-14.965-15.088.531-16.585z" fill="#262626"/><path d="m127.892 144.16c2.407-.177 8.368.535 10.16 2.422 2.723 2.868-2.223 2.786-3.398 3.896-1.328 1.256-1.526 2.727-1.67 4.393 1.293-1.228 2.516-2.429 3.925-3.525-.261.429-.545.896-.842 1.299-1.76 2.39-4.396 3.982-7.329 4.432-3.607-.283-6.521-2.564-8.884-5.18l.143-.224c1.587.094 2.75 2.521 3.819 2.462.806-3.463-3.147-4.674-5.542-5.643.309-.869.59-1.404 1.01-2.223 2.784-1.41 5.549-1.891 8.608-2.109z" fill="#fff"/><path d="m129.392 174.179c2.866 1.32 6.206 3.148 9.052 4.621-.177 1.02-.428 2.003-.877 2.942-2.556 5.357-10.845 5.259-15.389 2.932-2.309-1.703-2.777-3.112-3.427-5.867 2.879-1.524 5.774-3.015 8.687-4.472.085.953.363 6.435 1.122 6.824.582-1.128.73-5.463.832-6.98z" fill="#fff"/><g fill="#262626"><path d="m159.018 103.577c2.074.01 2.781.315 4.649 1.175l-2.186.381c7.933 4.35 9.39 11.48 7.468 19.839 2.962-.578 5.327-.436 8.24.086-7.786 2.259-11.009 3.82-17.37 8.574-2.683 2.001-5.34 4.038-7.97 6.109l3.907-6.467c-.23-.139-.455-.288-.671-.446-8.814-6.403-8.791-24.059 1.761-28.777.592-.264 1.528-.384 2.172-.474z"/><path d="m93.5432 104.557c2.4927-1.095 3.8792-1.336 6.4958-.593 1.204.503 2.228.976 3.192 1.887 6.397 5.276 6.706 17.255 1.982 23.59-1.224 1.641-2.321 2.643-3.903 3.882 1.352 2.259 2.741 4.496 4.166 6.71-1.441-1.024-3.874-2.994-5.259-4.12-6.874-5.59-11.7894-8.741-20.5473-10.725 3.2859-.862 5.0657-.638 8.3732-.097-.821-4.337-1.1655-7.792.4212-12.066 1.616-4.354 3.5713-6.033 7.59-7.9z"/><path d="m100.039 103.964c1.204.503 2.228.976 3.193 1.887-1.024.963-1.535 1.955-2.738 2.928-.8799.223-1.9869-.077-2.4901-.875-.3548-1.773 1.2961-2.58 2.0351-3.94z"/><path d="m99.327 105.734c.4208-.21.922-.177 1.313.086.39.263.608.716.571 1.185s-.324.882-.75 1.08c-.6475.301-1.4162.027-1.7262-.616-.3099-.643-.0462-1.416.5922-1.735z"/><path d="m95.2256 106.585c1.1179.152 3.2347 2.716 3.6141 3.756l-.2051.001c-1.2589-1.061-2.2012-2.117-3.318-3.319.3694 1.357 1.3103 3.654 1.839 5.045l-4.0592-1.547c-.1657 1.016 2.8505 2.352 2.4293 3.421-.9241-.115-3.6878-2.895-3.7847-3.844l.3629-.209c1.6374-.077 2.4526.363 3.9301.969-.5545-1.248-1.54-2.973-.8084-4.273z"/><path d="m194.936 57.0685c5.743-.7026 9.442 2.3295 12.278 6.866-1.603-.9224-3.233-1.9253-4.825-2.8763 3.371 6.4876 5.98 10.3185 4.607 17.9119-1.176-3.5237-.634-7.0826-2.706-10.8928-2.603-4.7898-6.327-10.1445-12.42-6.8999-4.781 2.5461-8.429 7.0875-10.12 12.1669 3.387-.2958 5.32-.0753 8.487 1.1038-.721.4102-1.559.9611-2.275 1.4055-1.458.872-2.95 1.8361-4.393 2.7417 4.352 1.9663 6.189 2.6702 8.796 6.7645-1.099.2138-2.052.3943-3.16.5323 1.698 2.3835 2.131 3.0375 2.602 5.8898-2.859-2.0211-5.749-4.3739-8.651-6.2875 1.326-.7182 2.664-1.4133 4.014-2.0848-2.804-.8373-5.782-2.0423-8.667-2.9456 1.108-1.2597 2.251-2.6799 3.335-3.9747-.905.1454-5.055.9525-5.559.4621-.134-2.3677 4.249-10.3166 6.057-12.4012 3.758-4.3265 6.886-6.8588 12.6-7.4817z"/><path d="m59.8659 57.0605c10.849-.8603 18.7979 10.8807 21.2122 20.1997l-5.7448-.6615c1.0104 1.2745 2.041 2.5328 3.0917 3.7744-2.8424.9813-5.6135 2.1056-8.4916 3.0379 1.334.6526 2.6556 1.3306 3.9638 2.0336-1.7866 1.0439-6.7474 4.9595-8.5718 6.3414.3968-2.7863.9321-3.4011 2.4393-5.7745-.857-.2402-1.8048-.4363-2.5281-.9175-.4003-1.8556 6.2903-5.6544 7.9304-6.3744-1.1514-1.0989-1.8121-1.5787-3.1713-2.3827l-3.3575-1.9258c3.5477-1.0745 5.3022-1.3424 8.9351-1.1454-2.8477-5.6428-6.4337-11.3948-13.0522-13.0445-3.3288-.8297-6.4207 2.6469-8.1432 5.0357-2.8749 3.9868-3.2458 8.9068-4.1731 13.5833-.982-8.4386.4601-11.4017 5.1143-18.1746-1.5965.7885-4.0428 2.3525-5.6216 3.2968 2.653-4.2695 5.07-6.209 10.1684-6.9019z"/><path d="m154.302 85.2561c.179-.0262.319.0064.509.0258.1.3931-.239.8583-.458 1.3125 7.191-1.1644 12.034-.4656 15.749 6.4371-6.129-3.6622-12.001-5.1498-18.409-1.3078-4.277 3.0191-6.312 6.328-8.865 10.7253-.502-3.9311.077-7.1865 1.926-10.7878.258-.5021 1.134-1.7887 1.673-1.9323.134.3778.181.5095.369.8778.481-.0669 3.065-2.7522 3.952-3.3567 1.579-1.0775 1.67-1.2897 3.554-1.9939z"/><path d="m101.976 85.2179c3.759.3389 7.412 5.3586 8.307 5.5196.198-.2704.217-.312.324-.6185l.088-.2574c1.3.2456 2.493 3.6464 2.83 4.7137.867 2.7503.997 5.1291.672 7.9407-1.555-3.0831-5.219-7.8802-7.866-10.1094-6.4296-4.8504-12.6711-3.3846-19.0644.5849 1.9191-5.3254 6.1963-6.764 11.6288-6.7623 1.2056.0004 2.3646.3006 3.5906.2455l.068-.2081z"/><path d="m116.054 198.472c1.2.425 2.922 1.389 4.434 1.893 7.909 2.639 13.523 1.376 20.64-1.94-.576 1.067-.744 1.343-1.522 2.27-5.029 5.085-14.459 5.861-20.25 1.724-1.538-1.097-2.576-2.205-3.302-3.947z"/><path d="m191.537 145.396c2.221-.01 3.992.012 6.147.62-3.837.468-9.301.505-13.476.928-12.482 1.265-21.722 3.498-33.315 7.829-1.512.653-3.034 1.277-4.571 1.868 8.54-6.086 22.904-9.404 33.137-10.586 3.827-.442 8.199-.561 12.078-.659z"/><path d="m63.7848 145.56c11.1382-1.262 37.7562 3.586 46.5402 11.095l-2.294-.992c-11.5772-4.901-22.5129-7.407-34.9596-8.683-2.4718-.248-4.949-.436-7.4298-.566-1.069-.059-4.3493-.077-5.0332-.302 1.0477-.42 2.0579-.451 3.1764-.552z"/><path d="m125.607 132.57c.651-.113 2.637-.122 3.349-.127 7.398-.045 16.736 3.577 21.929 8.955-6.434-3.972-11.774-6.346-19.386-7.112-7.752-.436-13.387.772-20.413 4.292-1.697.849-3.259 1.861-4.927 2.76 5.969-5.113 11.456-8.043 19.448-8.768z"/><path d="m59.8687 164.556c13.2091-4.54 26.3045-7.446 40.3683-6.712 1.015.052 5.131.072 5.716.737-.207.293-.274.399-.696.397-14.9292-.049-30.3388 1.587-44.7396 5.876z"/><path d="m152.495 158.611c2.936-.514 6.593-.643 9.573-.671 12.406-.114 23.376 2.657 35.002 6.567l-.359.374c-2.267-.766-6.277-1.672-8.679-2.207-7.713-1.707-15.535-2.873-23.41-3.491-4.052-.302-8.069-.356-12.127-.572z"/><path d="m126.471 130.087c4.865-.456 7.641.334 11.664 2.956-2.99-1.003-4.285-1.375-7.35-1.63-4.855-.089-7.371.344-11.94 1.828 2.629-1.793 4.489-2.612 7.626-3.154z"/><path d="m59.8688 164.556.6488.298c-1.3813.415-2.6142.799-4.0337 1.089l.0149-.102c1.2264-.606 2.0813-.867 3.37-1.285z"/><path d="m197.071 164.507c1.499.47 2.762.897 4.189 1.603-1.52-.394-3.037-.803-4.549-1.229z"/><path d="m155.382 46.4092.295.259c.305 1.4247 2.702 3.2301 2.691 4.4017-1.585-.7402-4.048-2.6978-2.986-4.6607z"/><path d="m120.973 219.053c.66.221.862 1.555 2.368 1.985l.116.032-.023.29-.498-.032c-.521.286-.348.527-.689 1.362l-.281.085-.087-.202c.188-.743.272-.889.165-1.621-.352-.493-.383-.518-.872-.885-1.635-.268-1.183 1.437-2.12 1.804l-.265-.327c.084-.966 1.366-1.752 2.186-2.491z"/><path d="m116.638 40.1207c1.071.0781 2.415.539 3.126 1.3712l-.124.1787c-.759-.0288-1.45-.4388-2.159-.7701l-.375-.2013-.1.1271c.283.4475.531.8722.794 1.3313-1.283-.1076-2.008-.8434-1.162-2.0369z"/><path d="m197.66 101.287c.771.452.968.988.984 1.866-.323.457-.106.298-.717.424.032-.488.049-.779.023-1.266-.525-.414-.309-.36-.901-.404-.214.36-.414.872-.584 1.27-.71.265-1.909.562-2.248-.311.378-.493 1.264.17 1.47.072 1.343-.641.284-1.121 1.973-1.651z"/><path d="m213.419 126.248c.253.104.158.054.347.285l-.056.107c-.325.617-.577 1.088-.374 1.746.367.493.379.511.947.691.658-.039.69-.08 1.292-.406l.158-.087.216.267-.077.174c-1.697 1.34-4.184-.283-2.453-2.777z"/><path d="m153.004 51.2812.578.1466c.079.6419-.964.61-1.564 2.3179l-.359.0797-.166-.2586c.124-.9546.82-1.6825 1.511-2.2856z"/></g></svg>