<svg fill="none" height="256" viewBox="0 0 256 256" width="256" xmlns="http://www.w3.org/2000/svg"><path d="m0 0h256v256h-256z" fill="#fff"/><path d="m157.965 83.2628c1.801 1.1401 2.392 4.7172 2.62 6.655 1.449 12.2582 11.864 23.1852 19.574 30.1292.181.166 2.266 19.544 2.464 21.809 2.672-1.556 6.558-4.081 9.729-2.97 18.371 6.445 5.323 42.671-13.189 37.175-3.899 12.694-9.691 18.62-19.726 26.606 9.293.518 15.484.421 22.394-6.689 1.16-1.194 2.146-2.217 3.768-2.555l.717.499c.228 1.884-.523 3.362-1.18 5.153 8.152-3.161 13.548-7.903 15.639-17.034.67-2.921-.901-3.562 1.33-6.621l.749-.009c2.262 2.275 2.683 6.381 3.168 9.468 15.546-18.11-2.159-33.118-.771-38.981.417-.098 1.093-.416 1.383-.083 8.292 9.591 12.687 25.392 5.451 36.838-1.665 2.632-4.429 6.068-7.302 6.669-1.501-.557-1.073-.513-2.099-2.339-3.51 7.052-8.716 13.947-17.092 14.994-.711-.313-2.935-1.312-3.588-.998-8.696 4.154-15.393 7.746-25.114 2.994-4.326 2.418-6.802 3.592-11.417 5.461 3.592 1.238 5.415 1.023 9.234 1.576 21.664 3.137 37.92 21.996 41.012 43.047.104.705-.537.866-1.093 1.214-2.41-.783-3.071-5.314-3.877-7.697-6.115-18.082-16.788-27.726-34.752-33.222-11.029 25.852-56.4025 25.881-66.7819.157-17.6544 5.133-27.5479 13.422-34.9047 30.398-1.1705 2.701-2.1638 10.613-5.5926 10.325l-.6699-.925c-.1018-5.539 7.4159-20.185 11.2925-24.888 11.773-14.284 23.2999-17.533 40.4846-19.505-4.843-1.791-7.7859-2.975-12.281-5.446-12.8589 2.985-15.0859 2.652-26.6025-3.303-1.0017.269-2.9869.841-3.9182.655-10.2531-2.021-11.4539-8.216-15.7396-13.432l-1.2414 1.194c-1.6232.01-2.2525-.24-3.5918-1.268-11.1707-8.583-8.2107-27.021-1.3535-37.405.8152-1.233.7443-1.067 1.9461-1.272.2554.269.5108.538.7663.807-3.1979 11.211-7.2633 15.571-4.4153 27.487 1.2028 3.239 2.5568 4.903 4.6829 7.442.1674-1.546.4165-3.082.7458-4.609.3538-1.639.6689-3.014 2.1032-3.934l.8436.2c1.5987 2.814.4771 7.017 3.0726 11.182 1.4856 2.388 9.1908 11.847 12.5217 9.723-.5353-2.408-1.1494-3.514.9092-5.197 1.5938.631 2.8245 3.817 4.9551 5.564 6.5748 5.383 12.8985 4.967 20.6374 4.472-10.3985-8.03-14.4066-12.023-18.9458-24.354-11.5039 1.718-18.6869-5.383-21.7952-15.879-3.1264-10.555-.5784-19.432 10.5649-22.074 4.2352 1.238 5.1097 1.952 8.1822 4.908.0465-4.302 1.3345-19.706 4.5382-22.231l.8578.377c.4717.783.7017 2.035.4624 2.892-2.2196 7.976-1.789 16.158-3.0134 24.129-.824 1.018-.3058.685-1.6985.837-2.5925-1.321-4.2474-4.849-5.6636-5.583-18.1736-9.41-12.9489 27.408.3059 29.228 2.3488.323 3.2487 1.615 6.0443.215-.0034-1.756-.3489-4.688 1.1284-5.73 1.5263 1.101 2.0464 3.988 2.6987 5.975 1.8688 5.559 4.9957 12.772 9.299 17 26.5011 26.023 78.6771 23.948 96.5461-11.055 1.597-3.127 3.513-12.742 5.193-14.298 1.863.435.012 3.836 3.183 6.102 12.096 3.014 23.203-25.749 10.154-30.907-5.349-2.109-8.257 4.899-11.546 6.665-.844-.621-1.177-1.023-1.131-2.231.362-9.538-1.179-16.824-3.228-26.141-9.345-7.448-15.044-16.447-18.245-27.8826-4.166 7.1835-10.275 12.6106-18.989 13.2656-1.438.108-1.713-.239-2.628-1.14-.156-1.473 2.889-7.0365 3.767-8.9253-9.171 9.5713-17.914 13.7503-31.469 13.3543-1.258-.039-1.5-.813-1.967-1.688.606-2.325 3.868-8.647 5.17-12.3024-5.353 7.0224-11.586 13.5984-19.7144 17.3714-2.9111 1.351-8.8449 3.749-11.9786 3.161-1.353-1.003-.8877-.954-2.3572-1.233-1.653 1.855-4.0087 5.549-6.5258 5.285l-.0896-.856c1.3051-3.724 5.8031-7.903 7.965-11.436 1.5131-2.471 3.2595-7.096 5.6573-8.4462l.5862.318c.4057 3.6992-1.9133 9.2532-3.188 12.7862 10.9142-1.654 20.6561-9.649 26.6401-18.6729 1.954-2.9507 3.759-8.2748 6.265-9.5177l.702.46c1.318 5.1576-2.84 16.6966-5.159 21.5506 10.925-.949 20.21-2.564 27.209-12.8697 1.871-2.755 2.531-6.5719 5.642-7.8931l.748.4355c.912 4.0665-2.071 13.2073-3.564 17.0633l.626-.245c12.068-4.7756 12.409-9.0427 16.86-19.2992z" fill="#000"/><path d="m140.657 210.937c.423 2.446.197 4.467 2.682 5.705l.878-.367c1.791-2.236.2-.43.248-3.89 2.579.059 5.61 1.077 8.162 1.771-2.601 5.917-6.631 9.039-11.893 12.263-16.278 7.321-39.427 5.134-48.4106-12.209 1.7151-.411 6.2655-1.761 7.7396-1.213-.6324 1.257-.792 1.536-1.181 2.872l.6866.724c1.8174.24.9454.372 2.6684-.611 1.195-1.478 1.088-3.142 1.25-5.07 14.282 3.817 23.099 3.753 37.17.025z" fill="#fff"/><path d="m179.636 14.0798c10.18-.597 13.26 2.2559 22.713 5.2409 3.13.9884 5.921 1.0324 9.503 2.4613l.222.8563c-1.324 2.8676-4.141 4.2476-6.811 5.9211 6.796 5.3876 7.837 9.5666 12.547 16.3978 1.117 1.6197 6.679 2.158 8.232 4.0468-.06 1.3604-.043 1.6736-1.197 2.9214-5.31 5.7302-10.28 6.3321-17.369 6.5963 1.124 1.9574 1.84 2.8871 1.489 5.1479-4.022 5.5393-19.199-5.3045-22.834-7.9616-1.494 3.9441-2.421 5.8819-4.471 9.5226 11.991 12.3901 19.02 28.7488 19.756 45.9734.363 8.52-1.266 16.403 1.093 25.001.242.88-.29 2.065-.915 2.769l-.819-.054c-4.424-3.738-2.71-19.872-2.798-25.436-.087-3.909-.488-7.809-1.2-11.661-1.776-9.7276-5.442-17.8996-10.873-26.1841-10.421-15.8987-10.168 3.8511-21.737-16.6915-3.477-.7535-4.634-1.3603-7.185-3.8119-8.19.6019-17.421 1.9133-15.406-9.3513-9.35-3.0976-19.207-4.3699-29.036-3.7484-20.8859 1.2283-40.4126 10.7607-54.2262 26.4734-12.738 14.7291-19.0466 33.9458-17.5154 53.3578.047 5.456 4.3487 21.942-2.0538 24.296l-.5833-.602c-.4835-3.494 1.8248-8.828 1.3041-11.495-2.7643-14.147-3.467-24.692.6043-39.0053 5.7836-19.7595 19.1871-36.4118 37.256-46.2769 21.1762-11.6707 42.4793-12.9479 65.3343-6.2489.311-.6948.63-1.3897.959-2.0797 2.966-6.1803 5.574-8.813 12.08-4.6927.773-4.9228 1.953-9.9434 5.165-13.8973 1.561-1.9182 6.295-7.6435 8.965-5.0647-.239 3.034-4 4.9864-6.052 6.8508-4.081 3.6994-4.551 9.5764-4.883 14.7242.984 1.6442 2.059 4.0225 2.922 5.789 1.708.641 3.434 1.2282 5.178 1.7616 2.916-.8221 9.373-11.7638 13.752-6.0776-1.431 1.6539-3.48.9052-5.928 2.6766-2.523 1.8302-3.935 3.6359-5.944 5.9504 16.29-2.9556 16.235 4.7858 29.878 11.3136 1.548.7438 5.257 1.6638 7.078 2.1335-1.288-1.9965-4.118-5.7008-3.744-7.9077 4.205-1.5365 8.026 4.1643 19.678-3.1563-10.157-3.4596-8.659-10.1-15.332-17.0095-1.999-2.0748-8.186-4.037-10.347-6.1509 3.774-1.3506 7.245-1.3996 10.845-3.4646-.169-.0343-.339-.0734-.508-.1076l-.843-.1958c-8.707-1.9574-13.811-6.7725-23.414-6.6501-8.403.1076-8.387 4.3551-12.274 5.9064l-.659-.8956c.182-5.0157 6.394-6.7871 10.404-8.2111z" fill="#000"/><path d="m171.107 51.4018c1.798-.1762 5.612-.5921 7.236-.2985 9.091 1.6589 1.07 14.2692-3.699 15.5709-2.563-1.6491-7.092-5.7204-6.809-8.9892 1.169-1.1744 3.091-.9445 5.173-1.4925l-.15-.8858c-1.064-.7291-2.133-1.4533-3.207-2.1677l.106-.7585z" fill="#fff"/><path d="m150.17 36.3497c3.367 1.238 8.778 5.7155 8.449 9.4198-2.278 1.4484-3.275-.1664-5.146 1.1402 1.125 1.7078 2.349 2.1433 3.618 4.1594-2.175 1.424-8.892 2.4124-11.017.4697-4.264-3.8902 1.083-12.1552 4.096-15.1891z" fill="#fff"/><path d="m161.075 48.6322c1.696-1.0766 3.944-.6069 5.068 1.0569 1.123 1.6686.713 3.9294-.925 5.094-1.098.783-2.534.9102-3.751.3279s-2.023-1.7763-2.104-3.122c-.082-1.3457.574-2.6326 1.712-3.3568z" fill="#fff"/><g fill="#000"><path d="m95.2212 144.142c10.2608-.553 11.4948 12.644 3.3016 17.469-9.5367.137-10.8594-12.087-3.3016-17.469z"/><path d="m148.592 143.638c9.187.827 10.29 13.496 1.843 17.719-9.12-.397-10.466-13.653-1.843-17.719z"/><path d="m107.961 179.594c1.761 1.155 3.119 2.927 5.149 4.037 5.216 2.858 12.545 4.493 17.917 1.17 2.095-1.292 5.64-5.75 8.001-4.228.165 1.708.306.896-.586 2.496-7.418 7.731-19.238 8.059-28.148 2.867-2.745-1.595-4.247-3.508-2.333-6.342z"/><path d="m93.5467 122.16c2.0406-.156 4.8714-.68 5.7238 1.459-1.5766 1.404-6.7719 1.722-9.8122 3.259-1.767 1.341-1.6897 1.727-3.5663 1.972l-.4473-.754c1.2238-3.807 4.6923-4.888 8.102-5.936z"/><path d="m147.842 121.681c4.016-.343 15.877 1.297 12.531 7.394-5.49-4.801-5.979-3.705-12.836-5.08l-.449-.861z"/><path d="m52.3634 151.697c4.8249.876 11.2783 7.291 7.667 11.686-4.567-3.299-.5314-6.704-8.3673-9.092l-.2525-.661z"/><path d="m189.401 149.891c1.548.235 1.898.133 2.591 1.41-4.861 4.927-4.572 2.168-7.208 9.366-1.46.538-.812.621-2.023.098-1.319-4.17 3.314-8.892 6.64-10.874z"/><path d="m67.6068 111.165c.8617.656.5617.338 1.0163 1.419-.5441 3.005-2.1457 9.483-4.6869 11.304-3.4645-2.555 1.5346-10.291 3.6706-12.723z"/><path d="m121.616 163.735c3.257-.044 5.73.015 7.088 3.513l-.462.871c-1.893.074-1.809-.386-3.791-1.737-4.125.352-4.165 2.065-6.702 1.904-1.387-2.354 2.116-3.719 3.867-4.551z"/><path d="m72.55 245.098c1.1603.376 1.0683.396 1.8258 1.375.7247 2.838 1.3183 6.801.0088 9.527-1.1514-.347-1.9755-.313-2.3537-1.571-.7898-2.632-.4576-6.86.5191-9.331z"/><path d="m170.108 245.039c3.972 1.067 2.737 7.741 1.966 10.941-1.883-.494-1.196.015-2.296-1.306-.792-3.435-.2-6.176.33-9.635z"/></g></svg>