<svg fill="none" height="256" viewBox="0 0 256 256" width="256" xmlns="http://www.w3.org/2000/svg"><path d="m0 0h256v256h-256z" fill="#fff"/><path d="m153.367 48.5813c.881.4236.705.3944 1.455 1.0955 1.641 7.0889 4.319 15.3707 8.998 21.0233-.341-2.7411-1.208-7.7219-.278-10.166l.75-.2921.94.667c4.352 11.8359 16.607 21.6368 22.367 32.7132 4.586 8.8168 6.12 23.5108 6.1 33.3268 7.571-6.534 17.046-4.679 19.806 5.326 4.071 14.748-6.972 36.19-24.382 33.332-.497-.078-1.14 1.806-1.334 2.205-4.441 12.941-14.095 22.562-25.819 29.213-2.673 1.572-8.491 3.856-10.186 5.2-.224 1.801-.224 1.679.258 3.432 1.135.633 11.466 2.303 13.696 2.78 15.332 3.282 26.574 10.429 35.055 23.935 2.352 3.749 8.754 16.705 8.199 21.671-.068.652-.628.735-1.329 1.1-.721-.263-1.456-.423-1.704-1.358-6.427-24.154-18.463-36.024-42.13-42.607-.136.409-.282.813-.433 1.222-10.083 27.017-57.334 27.119-69.4575-1.154-27.528 8.044-33.6528 18.73-42.6211 43.449-.1898.521-.9299.409-1.4703.443-4.0898-3.33 7.4783-22.756 9.9565-26.491 3.5786-5.078 7.4006-8.277 12.245-12.06-5.677-1.689-8.1406-5.345-10.5798-6.105.7108 1.485.8082 1.441.8618 3.053l-.7888.823c-7.3567 2.127-15.4729-5.799-17.659-12.45l-.5112-1.548-.2532-.774c-4.4598-.76-8.715 1.207-12.6831-4.772-.297-.448-.6816-1.981-.224-2.293 10.536-7.118 9.7863-18.949 10.3316-30.094.0341-.759.2483-.681 1.0906-1.124l1.0029.321c.5696.833.6671 1.105.7109 2.084.443 10.424-.1899 21.564-7.9166 29.466-.6816.696-.3068 1.626-.1315 2.512 3.5201 2.731 8.4522-.735 10.9401-3.476.1022 10.686 2.0011 14.762 12.021 18.89-.3993-2.502-1.1296-7.765.4771-9.727 3.1014 1.1 4.7908 6.826 6.899 8.476 2.4295 1.899 7.3032 3.467 10.2147 4.358 5.935-2.727 12.1524-4.806 18.5353-6.203 2.819-.604 10.1466-1.256 11.2906-3.53-.336-3.525-6.6117-5.025-9.7618-6.704-14.6452-7.8-22.0749-16.783-27.7811-31.9-15.0591 4.805-26.267-12.348-25.6097-25.615.3554-7.094 3.5494-16.812 12.2985-16.442 4.1433.171 7.3178 3.292 9.8885 6.14.0974-10.999 1.446-16.924 6.3488-26.715-3.2426-4.0265-15.1369-21.0185-1.2366-22.518 4.5279-.4869 10.6771 7.8971 13.7298 11.6801 15.619-.1558 30.4686-6.8017 40.9856-18.3455 2.278-2.5317 5.725-8.2135 7.756-9.7667l.808.1364.652 1.0029c-.165 4.3137-5.346 14.3385-7.468 18.1605 17.683-6.2856 21.738-19.0953 27.08-35.0064z" fill="#000"/><path d="m153.678 59.0296c2.727 2.673 5.575 16.6707 11.656 17.4497 1.587-.7547.93-.2192 1.957-1.7577l-1.943-6.0811c1.661 2.6633 7.328 10.1027 9.193 12.2985 12.503 14.6988 16.354 28.039 15.448 47.446-.102 2.113-.229 5.195 1.329 6.787 2.746-1.407 3.818-7.099 9.655-8.394 2.133-.487 4.372-.014 6.13 1.295 10.731 8.039-.896 34.958-14.051 34.588-4.45-.126-1.14-5.307-3.749-7.731l-.998.243c-1.188 1.977-3.131 9.353-4.163 12.279-4.986 14.124-17.26 23.901-30.605 29.884-19.144 8.584-31.959 6.933-51.176-.399-14.9564-6.354-27.4789-18.092-31.3641-34.276-.5307-2.201-.9153-5.56-2.8823-6.772-2.4831 1.616-.6622 4.114-1.967 6.996-1.6067.862-1.2659.575-3.1111.516-13.6179-.428-23.6671-25.843-12.5566-34.612 7.4054-5.847 11.9139 6.992 16.6463 7.863.7109-.881 1.5337-22.021 4.1092-26.534 4.1872-7.333.5843-2.625 9.0267-4.879 2.0254-.54 5.0976-5.195 5.3167-7.5612l.0974-.9202c.0195-.2386.0438-.4722.0633-.7108 3.9242-1.0322 8.8855-1.0224 12.8486-2.2201 11.6659-3.5201 19.7139-8.3256 28.0589-16.9969-1.29 2.3273-5.385 7.7316-5.789 9.5671.827 1.2221.297.7206 1.801 1.3828 14.207-.6817 26.662-16.2568 31.019-28.7501z" fill="#fff"/><path d="m111.646 166.025c7.673.507 13.019 1.972 21.476 1.631 4.684-.194 10.551-1.48 13.974-1.411 4.562 2.736-1.709 11.845-4.056 14.771-1.266 1.247-3.033 2.8-4.548 3.681-4.08 2.381-8.963 2.975-13.496 1.641-7.863-2.332-16.33-11.826-13.35-20.313z" fill="#000"/><path d="m124.806 176.6c3.92-.151 12.572-.774 14.641 3.146l-.39 1.095c-1.499 1.49-2.926 1.933-4.859 2.785-3.7.92-14.957.424-14.095-4.664 1.3-1.451 2.809-1.719 4.703-2.362z" fill="#fff"/><path d="m119.641 170.724c3.831-.015 15.137-.287 18.121.672l-.287.871c-5.492 2.624-13.326 3.194-17.834-1.543z" fill="#fff"/><g fill="#000"><path d="m100.735 127.811c10.507-.01 11.208 13.958 2.907 19.012-10.463-.307-11.1933-14.002-2.907-19.012z"/><path d="m157.32 127.382c9.309 1.709 9.888 14.801 1.349 19.295-10.434-1.378-10.678-16.442-1.349-19.295z"/><path d="m157.325 102.065c4.435.102 12.493 1.942 12.839 7.424l-.677.653-1.037-.239c-5.302-5.2-8.116-3.218-13.876-5.375l-.224-.789c.769-1.144 1.636-1.236 2.975-1.674z"/><path d="m98.1938 103.053c2.4632-.117 4.8252-.716 6.4222 1.422-1.188 1.748-7.8341 1.952-11.2423 3.802-1.4168 1.227-2.5122 2.707-4.3818 2.133l-.039-1.052c2.5463-4.211 4.674-4.971 9.2409-6.305z"/><path d="m53.8784 136.686c5.5894.716 11.6266 7.62 8.6275 12.825-2.5318-1.773-2.9992-5.01-4.7812-7.674-2.1179-3.179-3.6661-1.436-5.1949-3.072.1704-1.494-.0682-.764 1.3486-2.079z"/><path d="m201.353 135.455c1.509.199 2.069.311 2.853 1.567l-.37.911c-5.545 2.317-6.198 5.024-8.199 10.185-1.334.078-1.587-.199-2.274-1.1.015-4.898 3.978-9.246 7.99-11.563z"/><path d="m128.57 148.289c3.496-.137 6.845.457 7.736 4.411l-.584.866c-1.782-.243-1.529-.535-3.155-2.093-3.719-.541-6.865 2.137-8.715 1.003.682-2.318 2.697-3.258 4.718-4.187z"/></g><path d="m108.618 202.994c16.695 4.581 23.165 5.244 39.768-.029.107 4.07.151 10.458 5.419 11.529.764-.487.423-.136.866-1.188-.36-1.68-1.928-2.814-3.242-4.056 3.866.521 5.73.804 9.445 1.875-3.656 7.098-6.339 9.547-13.063 13.686-13.54 6.222-28.701 6.149-41.472-2.308-4.742-3.136-6.9085-6.889-9.5425-11.743 2.5658-.58 5.4965-1.067 8.1065-1.558-1.811 1.699-3.598 3.417-5.3654 5.165 9.2704-.886 8.8074-2.4 9.0804-11.373z" fill="#fff"/><path d="m69.8382 83.2614c3.7684 1.9232 11.6364 10.1222 12.3667 14.7426.2093 1.3049-2.931 3.788-3.9535 4.669-2.4489.726-4.859-1.616-6.2125-3.5151-3.8317-5.3848-8.8611-10.7843-2.2007-15.8965z" fill="#fff"/><path d="m118.224 14.573c12.449-1.9475 24.738 1.0955 34.661 8.7248 18.243-3.0965 34.519 9.5233 45.006 23.2289 16.452 21.5004 20.561 49.1695 21.174 75.4993.122 5.117 1.554 24.145-2.054 26.881-.833-.667-1.154-1.12-1.144-2.264.37-34.369.107-73.64-23.443-101.2167-9.056-10.5992-19.87-18.2675-34.101-19.4166-2.298.0049-4.304.3165-6.578.5989-25.468-20.75064-69.0144-2.2542-87.3063 20.1469-14.6647 17.9608-21.3154 39.3006-22.0116 62.3345-.1022 3.428.6475 12.878-1.5337 15.152l-.8325-.146c-2.5318-4.348-.6086-23.268.1411-29.2762 2.118-17.0455 9.1485-34.6411 19.8841-48.1276 14.319-18.029 35.2497-29.5923 58.1379-32.1192z" fill="#000"/><path d="m217.303 154.954c2.673 2.936.735 17.352 2.483 23.998 2.298 8.744 5.429 9.543 7.04 13.72-.823 5.984-9.523 3.749-13.598 2.732-.536 1.149-.653 1.752-.984 2.882-1.489 5.078-11.991 14.294-17.493 12.196-1.198-1.397-.74-.599-1.159-2.61-1.076-.175-5.643 5.838-10.219 4.236l-.044-.847c.862-1.485 1.319-1.587 2.819-2.4l.487-.263c4.951-3.209 5.321-5.336 9.002-9.494.862-.974.998-.813 1.85-.784.906 2.575.01 6.212-.618 8.832 5.799-2.108 11.193-5.117 12.342-11.748.414-2.386.526-4.577 1.587-6.69l.843-.166c2.244 1.69 6.918 7.819 10.726 3.895-1.451-2.395-4.178-5.954-4.791-8.481-1.743-7.172-4.236-22.635-.273-29.008z" fill="#000"/><path d="m39.389 127.587c.297.224.7643.511.8276.813.482 2.234.8277 18.803.2484 20.249l-.8813-.015c-2.6243-6.392-3.8073-14.82-.1947-21.047z" fill="#000"/><path d="m74.8189 244.271c1.2512.492 1.7138.37 2.1617 1.845.7985 2.639.9153 7.338-.1461 9.884-4.2699-1.68-3.1403-8.082-2.0156-11.729z" fill="#000"/><path d="m181.123 244.286 1.466.37c1.962 2.58 1.032 7.697.706 11.091-1.081-.253-1.836-.175-2.269-.867-1.368-2.196-.263-7.882.097-10.594z" fill="#000"/></svg>