<svg fill="none" height="256" viewBox="0 0 256 256" width="256" xmlns="http://www.w3.org/2000/svg"><path d="m0 0h256v256h-256z" fill="#fff"/><path d="m121.3 14.3762c2.244-.2244 4.492-.3487 6.751-.3724 15.214-.1659 30.578 5.0764 41.585 15.7726-.315-4.0352-1.384-9.0704 2.485-11.4516 6.597-.1524 9.866 11.7587 10.257 17.0401 7.554-2.3547 16.08-1.7797 22.014 4.5289.899.9536.662 1.8826.454 2.9973-2.403 2.8624-5.097 2.5234-8.999 2.9538 13.83 8.5936 22.864 23.6059 22.066 40.6745-.048.9769-.928 1.2845-1.634 1.6544-1.456-.4947-2.428-1.9368-3.56-3.1869 2.433 15.5901-.923 28.4741-7.655 42.4671 15.18 13.1 1.639 44.472-18.198 38.473-7.234 21.194-18.401 26.116-36.971 35.394 31.366 4.771 50.372 17.269 58.902 48.823.484 1.786.982 3.424-.004 5.075l-1.18.221c-.9-.568-1.355-.748-1.659-1.919-6.301-24.382-17.458-39.091-43.403-46.154-2.728 9.556-5.634 13.823-14.262 19.122-19.822 9.789-49.8537 5.007-55.5167-19.367-21.375 5.822-33.5133 16.789-41.6088 37.309-1.2428 3.149-1.6926 11.06-5.2906 10.854l-.5803-.942c-.2708-6.576 6.8042-20.891 10.5956-26.574 11.9111-17.825 27.8166-22.221 47.4608-26.25l.396-.729c-2.128-1.595-9.5702-4.816-12.2832-6.384-11.7031-6.764-17.6804-14.733-22.5599-26.836-20.0548 5.714-34.1034-26.285-18.251-38.35-7.9987-12.662-6.5528-17.756-7.1089-31.7732-.3869.1978-.7738.3898-1.1655.5755-1.8231.8429-1.2042.8671-2.5147.3889-1.9393-3.0728-.1209-14.1134.7447-17.6137 3.8882-15.7324 11.0938-28.1155 24.9054-36.7801-2.9742-2.9548-7.1766-8.8871-4.894-13.1534 3.2981-.7293 11.0792 2.4601 16.4665.812 6.0015-1.8363 9.0626-4.1058 14.4741-7.196 9.6625-5.5203 18.6955-8.9156 29.7415-10.1038z" fill="#000"/><path d="m165.593 75.5442c.846 1.0344 1.915 5.7529 2.718 7.5306 4.125 9.1594 9.125 14.7024 16.364 21.2962 2.559 11.213 4.169 19.926 2.912 31.407-.131 1.208.624 1.587 1.451 2.237l.914-.151c2.529-2.837 5.488-10.154 10.851-8.285 15.732 5.473 4.077 36.418-10.59 33.94-2.346-.397-2.225-5.554-2.752-7.392-1.504.062-1.726 1.326-2.007 2.807-5.029 26.673-33.049 42.736-58.801 42.482-15.267-.15-34.4658-7.969-45.574-19.986-9.0578-10.362-6.5431-12.828-11.3211-23.092-1.1703-.72-.5851-.674-1.7651-.438-1.1655 2.203.1886 4.197-.6868 6.599-8.5742 2.438-14.7013-4.24-18.0043-11.435-3.1192-6.794-3.4626-18.242 4.7344-21.592 5.4792-2.24 8.7629 5.25 12.5349 7.673.7012.449.8173.164 1.5813-.101.59-1.454.4015-4.558.2951-6.219-.6238-9.601 1.6055-18.865 3.5447-28.212 14.2324 2.586 29.4369-9.7524 38.7029-19.1193-1.258 2.7609-6.316 9.8867-5.185 12.0528 2.031 1.2032 6.113.6954 8.492.3114 14.634-2.3629 25.094-10.1628 33.809-21.7228.208 2.5868 0 11.1151.653 12.5557 5.706 3.7078 14.464-8.9422 17.129-13.1466z" fill="#fff"/><path d="m145.388 165.672.895.185c5.058 5.354-9.61 29.444-29.195 14.609-2.612-2.604-7.859-9.794-5.953-13.529 3.119-2.08 7.602.477 12.065.622 8.768.283 13.71.029 22.188-1.887z" fill="#000"/><path d="m125.875 174.369c3.467-.103 12.124-.289 12.931 3.982-1.243 2.184-3.922 2.77-6.301 3.596-4.14.625-9.987-.05-12.835-3.424-.469-3.218 3.656-3.539 6.205-4.154z" fill="#fff"/><path d="m133.075 170.167c.643-.095.329-.152.929.255-1.693 2.146-6.819 1.699-9.159 1.379l-1.601-.743-.015-.502c2.22-.632 7.293-.405 9.846-.389z" fill="#fff"/><g fill="#000"><path d="m100.432 130.732c10.378-.551 11.404 12.887 3.473 17.55-9.9189.064-10.712-12.81-3.473-17.55z"/><path d="m154.654 130.165c9.831-.216 10.885 12.372 3.409 17.512-10.18.21-11.118-12.436-3.409-17.512z"/><path d="m154.779 107.107c4.711-.266 11.732 1.37 13.986 5.911-.455 1.553-.029.886-1.543 1.909-6.165-6.224-11.219-3.262-14.077-5.683l.111-.985z"/><path d="m98.8705 108.115c1.9635-.053 4.0095-.247 5.4215 1.387-1.374 2.239-6.2291 1.249-10.7604 3.936l-.474.291c-1.7216 1.582-1.3637 1.754-3.2932 2.118l-.6094-.543c.1354-4.224 6.369-6.336 9.7155-7.189z"/><path d="m54.7807 139.743c5.3293 1.067 12.1045 6.918 8.7677 12.375-4.6087-3.181-1.0204-7.3-8.7774-9.592l-.7447-.217-.2708-.624z"/><path d="m199.517 137.813c1.315.5 1.233.526 2.249 1.533l-.189.716c-5.818 2.567-5.426 3.407-8.168 9.797-1.528.041-1.663-.129-2.355-1.207.353-4.8 4.323-8.831 8.463-10.839z"/><path d="m128.626 149.152c3.424-.046 6.326.754 7.269 4.399l-.532.778c-1.746-.121-1.765-.684-3.453-2.157-3.511-.366-3.99.289-7.133 1.978l-.803-.253c-1.233-2.738 2.52-3.931 4.652-4.745z"/></g><path d="m123.466 17.7682c14.624-1.0591 31.99 3.1206 42.605 13.8043 2.07 2.0857 4.889 6.5735 6.263 7.2395l.716-.4783c.382-3.4984-.523-12.2278-.373-17.0938 6.297 6.604 6.679 11.3201 5.707 19.8692 9.691-4.8568 14.242-5.7936 23.328.7041-2.954.4014-12.046 1.0861-13.603 3.6966 1.238 1.6679 7.046 3.7677 9.594 5.6808 11.331 8.5094 14.857 18.665 17.212 31.8465-1.809-2.183-5.209-7.1999-8.212-5.6451-.077.2747-.159.5494-.237.8241 2.109 4.3277 4.681 11.2649 4.237 16.1251-.716 7.7458-2.476 15.4908-3.352 23.3428l-1.088-.915c-1.393.972-3.448 7.481-4.183 9.463-5.189.015-6.664.5-10.678 3.553.02-3.233-1.349-24.604-2.926-26.168-6.364-6.3148-11.538-11.0216-15.717-19.3709-1.475-2.964-2.65-6.0716-3.496-9.274-.653-2.4528-.924-6.3323-2.06-8.1395l-.88-.1702c-1.47 1.7855-2.22 4.3432-3.206 6.5354-2.757 6.0938-6.529 9.0853-11.737 12.7089.038-3.095.12-17.3829-1.988-18.7597-1.025.7766-3.82 5.8109-4.855 7.4551-.972 1.2492-1.964 2.4809-2.979 3.6947-8.541 10.1324-19.093 15.511-32.165 16.5942 1.906-3.4896 7.985-16.7828 5.963-20.328l-.943-.0068c-1.654 1.2917-2.132 2.3348-3.303 4.0825-8.912 13.2908-20.1174 20.3233-35.6603 23.3583 1.2429-2.1312 4.5797-7.5049 4.0429-9.8044-2.0021.3462-13.681 14.0144-13.5504 15.7864l1.2041.585c.7738 1.314-1.1703 8.668-1.4701 10.72-.6577 4.464-.7931 8.253-.7979 12.754-3.4674-3.207-4.9376-3.858-9.6527-4.349-.9527-3.882-1.4701-5.701-2.9596-9.381-.4981 2.015-.5465 2.385-.1935 4.42l-.8559.853c-1.77-2.017-4.9908-15.332-5.0488-18.34-.0822-4.483.885-10.5371 1.0155-15.2725l-.7543-.1253c-1.7894.9276-2.6308 2.3223-3.8979 3.9307 1.3638-22.9637 9.5124-37.6607 29.074-49.5282-4.8263-3.7368-5.6581-4.2499-8.1873-9.597 16.5391 3.5752 20.7464-2.9215 34.8916-9.7741 8.8696-4.2972 15.4756-6.2258 25.1566-7.1064z" fill="#fff"/><path d="m106.956 201.309c16.573 4.667 24.141 4.883 40.768.418.657 7.443 4.047 7.229-2.085 13.223-10.184 7.386-27.516 7.96-37.43-1.198-3.835-3.543-1.567-7.007-1.291-11.734z" fill="#fff"/><path d="m100.486 205.328.541.365c.126.719.271 1.436.431 2.15.88 4.091 5.808 9.814 9.469 11.766 12.675 6.751 34.059 5.505 41.7-8.288 1.32-2.385 1.345-3.538.373-5.987 2.244-.198 4.913.801 7.171 1.441-.464 1.888-1.044 3.807-1.581 5.682-.329.641-.677 1.273-1.04 1.897-12.82 21.891-55.478 19.733-62.5145-7.692 1.6491-.475 3.7431-.919 5.4505-1.334z" fill="#fff"/><path d="m181.121 242.983c.982.416 1.77.485 1.973 1.656.527 3.079.585 8.55-.575 11.328-.963-.382-1.645-.401-1.925-1.105-1.175-2.939-.29-8.984.527-11.879z" fill="#000"/><path d="m72.732 243.037c1.3734.645 1.5329.356 1.9633 1.712.8802 2.775 1.2429 8.632-.0145 11.251-.9188-.41-1.8231-.602-2.06-1.732-.6771-3.273-.9044-8.14.1112-11.231z" fill="#000"/></svg>