<svg fill="none" height="256" viewBox="0 0 256 256" width="256" xmlns="http://www.w3.org/2000/svg"><path d="m0 0h256v256h-256z" fill="#fff"/><path d="m121.849 14.5625c21.49-2.9517 44.456 5.9001 58.649 22.1593 2.363-18.984 14.327-15.0797 12.354 4.4796 7.173-1.422 18.23.3747 20.697 8.2087-.769 4.9036-7.396 4.1412-11.428 4.3144 6.397 5.2843 10.824 10.9229 14.005 18.6067 4.56 10.9879 5.524 23.1372 2.756 34.7068-.662 2.671-1.085 6.396-3.933 7.07l-1.626-1.047c-.758 1.195-3.47 10.475-5.743 14.885 1.32 1.181 3.216 2.883 4.101 4.378 7.119 12.024-.409 32.415-14.341 35.623-3.572.822-5.343.434-8.798-.631-.514 1.375-1.052 2.74-1.613 4.095-6.4 15.475-17.967 24.018-32.973 30.276 13.136 3.869 22.857 4.085 35.148 13.556 9.595 7.162 16.152 17.947 19.915 29.182.925 2.762 3.79 8.371 1.593 10.764l-1.452-.028c-2.253-3.642-4.873-13.787-8.049-19.584-9.447-17.249-20.667-23.204-39.088-28.565-2.408 13.459-9.225 19.408-21.151 24.587-20.778 6.659-46.2502-.583-50.9283-24.243-1.7758.438-3.5356.94-5.2754 1.503-24.3347 8.055-34.2638 21.73-41.4017 45.337-.277.917-1.0129 1.052-1.7538 1.276-1.3412-.749-.8552-.236-1.5593-1.542.266-3.028 1.2829-4.972 2.1825-7.769 8.8139-27.399 28.691-39.402 56.0428-43.987-17.7161-7.836-28.8212-15.66-35.1743-34.695-21.6703 5.455-34.9728-30.772-15.9998-40.806-5.3737-11.287-6.8875-18.052-5.9694-30.3963-1.1611 1.4066-1.9494 2.6859-3.581 3.4104-3.8853-1.3691-2.1859-14.3408-1.4075-17.8205 3.792-16.9457 12.8319-27.9031 27.1004-37.3343-3.7087-2.7726-10.4864-10.1875-8.094-15.155 3.2347-1.8955 8.4457 2.9657 12.6938 3.1189 8.1902.2944 12.5874-2.3745 19.2648-6.642 2.6814-1.7134 7.9972-4.0105 11.0053-5.2609 7.5829-3.2362 15.6229-5.2709 23.8319-6.0308z" fill="#000"/><path d="m173.626 78.5751c2.395 11.6255 6.066 18.8757 14.139 27.4289.414 4.273 1.556 7.356 1.863 12.464.363 6.065.142 11.839-.042 17.969.251.366.503.732.754 1.097 4.446 1.03 6.673-10.187 13.656-7.104 17.327 7.649-1.013 40.585-13.558 34.044-1.589-2.919.639-5.647-1.57-7.74-2.339 1.286-2.992 6.078-3.818 8.818-1.692 5.707-4.397 11.062-7.985 15.811-13.514 17.829-45.3 26.705-66.491 20.739-16.992-4.784-30.9909-11.053-40.4001-26.686-3.4403-6.745-3.7686-12.339-6.5721-18.91-.1862-.437-.4845-.292-1.1167-.225-1.2933 2.642.3942 6.502-1.8765 8.463-9.6083.35-14.0534-5.558-17.5281-13.624-3.767-8.744-.8811-26.434 11.7293-19.661 2.3336 1.253 4.3977 4.633 7.2088 6.218 1.8516-.809 1.0208-11.16 1.2558-14.357.736-10.016 3.5655-16.88 8.6673-25.3977 17.9407 1.648 30.4423-5.3263 42.6513-17.9936-2.545 5.7823-6.005 11.0807-8.837 16.6649-.21.4156.467.9655.9 1.4814 2.153 1.0098 3.813 1.2573 6.167 1.398 15.772.944 26.696-4.1442 38.269-14.1007-1.845 2.6768-4.265 4.9849-3.163 8.2695 1.049.6347 1.725 1.0623 3.162.7455 11.668-2.5756 15.849-7.2942 22.535-15.8122z" fill="#fff"/><g fill="#000"><path d="m96.1122 132.569c11.3488-.979 11.9948 12.451 3.8864 17.985-10.6316.44-11.6255-12.535-3.8864-17.985z"/><path d="m153.468 133.095c11.183-.68 11.97 12.645 4.379 17.823-10.991 1.202-11.937-12.556-4.379-17.823z"/><path d="m108.17 170.704c2.344.28 2.492 1.363 4.443 2.667 6.732 4.498 12.079 6.259 19.941 4.083 4.93-1.366 8.509-6.216 10.91-6.273 1.046 1.172.7.467.726 2.327-.375.434-.762.857-1.161 1.269-9.394 9.654-35.382 7.993-34.859-4.073z"/><path d="m94.96 109.739c.5678-.025 1.1356-.041 1.7034-.05 2.359-.031 3.0965-.041 4.8406 1.682-1.046 2.189-6.7655 1.434-11.02 3.359l-.5419.252c-1.4165 1.303-2.2188 2.649-4.0474 1.768.0149-4.183 5.7388-6.239 9.0653-7.011z"/><path d="m154.977 110.227c4.697-.338 11.987 1.124 14.27 5.666-.061 1.947.25 1.077-1.122 2.641-7.16-6.91-10.587-3.889-14.322-6.079l-.048-1.001z"/><path d="m48.7226 138.486c6.4219-.409 12.2806 6.726 9.8188 12.558-3.5026-2.481-2.6085-4.69-5.2988-8.023-.5983-.742-3.6788-2.043-4.9446-2.884z"/><path d="m200.661 139.034c1.192.021 1.303.104 2.466.438l.342.784c-5.19 4.982-5.088 3.205-7.943 10.088-.374.129-1.281.218-1.716.278l-.678-.565c-.667-4.355 4.002-9.092 7.529-11.023z"/><path d="m124.02 154.149c3.442-.017 6.211-.06 7.778 3.515l-.474.886c-1.905.106-2.112-.491-4.131-1.662-3.235.078-5.617 2.581-7.608 1.54l.285-1.406c1.361-1.675 2.153-1.873 4.15-2.873z"/></g><path d="m124.653 18.0537c.511-.0439 1.022-.0883 1.533-.1322 17.653-.9216 34.94 5.2649 48 17.1783 3.843 3.4741 4.344 6.8266 7.552 10.3786l1.158.0524c1.758-1.5293.022-14.4126 4.246-17.7431 5.681 3.8344 1.672 14.9135-.147 19.8087 9.033-3.9063 15.334-7.0002 22.515 2.3096-3.818.2096-11.909.1767-14.797 2.1271-.327 1.9109 3.994 3.7386 5.524 4.9575 15.626 12.4552 19.042 32.7719 14.662 51.0984-.648-2.143-1.165-4.818-3.011-6.064-2.007 1.055-2.072 8.379-2.597 10.952-1.014 4.967-2.631 9.031-4.908 13.51-5.508.784-6.307.526-10.948 3.977.145-6.79-.095-12.907-1.3-19.603-.465-2.588.882-.724 1.81-2.905-.736-2.112-5.299-5.783-7.192-8.3652-4.96-6.7658-8.225-13.7954-9.68-22.1019-.418-2.391-.529-6.2309-1.501-8.1663l-.89-.2729c-1.417 1.2438-1.904 3.1688-2.847 4.8637-5.463 9.8253-10.375 13.6742-20.742 17.0476 1.419-1.9549 2.657-4.0345 3.699-6.2129 1.356-2.8096 6.657-14.5369 5.709-17.2497l-.776-.1761c-1.38 1.1596-3.529 6.1121-4.97 8.1219-3.553 4.9541-6.627 7.8514-11.293 11.6689-11.454 7.6194-19.969 9.4421-33.515 8.5325 2.955-4.1502 14.259-25.9947 10.116-29.6929-1.168.6337-3.843 5.8088-4.965 7.3769-10.099 14.1118-23.3068 21.0442-40.3369 21.3645 3.1598-4.7305 5.1287-7.7516 6.9838-13.1049-15.0707 10.1586-22.0919 31.1318-22.2326 48.6188-3.6469-2.916-4.3848-3.577-9.1113-3.952-7.9987-16.517-8.0615-26.9331-.8702-43.1829-4.9386 3.2891-7.6583 6.4933-11.2163 11.1261.8641-23.273 12.082-40.1903 33.3601-49.6095-7.2597-3.1807-9.4575-4.0444-12.9347-11.0177 17.9881 6.6809 23.4031-2.2857 38.869-8.9192 8.8541-3.7985 17.5571-5.6845 27.0441-6.5991z" fill="#fff"/><path d="m150.518 204.869c2.369.116 6.267.802 8.416 1.783.522.855.891 1.22.539 2.347-8.955 28.609-48.446 29.839-64.3123 6.965-1.7917-3.396-2.2737-5.417-2.9428-9.041 2.5686-.615 4.5918-1.19 7.2402-1.393l.7879 1.096c-.3987 2.503-.8343 3.404.602 5.818 10.105 16.986 45.296 16.731 51.362-3.562.45-1.507-.836-2.766-1.692-4.013z" fill="#fff"/><path d="m104.299 204.175c17.214 4.811 25.824 4.516 42.83.136l.729 7.122c-1.071 1.464-2.468 2.824-3.726 4.158-12.496 8.957-30.11 7.791-40.178-4.322.204-2.274.252-4.794.345-7.094z" fill="#fff"/><path d="m68.5629 243.597c3.1683 1.707 2.8629 9.722 1.4489 12.403-3.4976-1.926-3.098-9.539-1.4489-12.403z" fill="#000"/><path d="m181.93 243.642c3.23 1.559 2.522 9.435 1.231 11.984l-1.538-.502c-1.745-2.195-.752-8.946.307-11.482z" fill="#000"/></svg>