<svg fill="none" height="256" viewBox="0 0 256 256" width="256" xmlns="http://www.w3.org/2000/svg"><path d="m0 0h256v256h-256z" fill="#fff"/><path d="m141.54 14.1914c2.499-.1418 4.867-.659 6.696.9611-.639 3.2999-5.637 3.483-6.006 5.451 4.555.0503 20.625-.7048 19.846 6.7553-1.555 1.5835-6.849 1.0435-9.735 2.1236-2.559.9611-3.476 1.5424-5.784 2.8971 6.043 1.0343 9.641 3.5836 13.09 8.9613.604.9428.344 1.6567.004 2.5813-.424.3158-1.619 1.2586-2.21.9199-10.8-6.1786-18.18-2.0916-23.62 8.8057 11.98-7.5837 18.914-6.6409 17.575 8.9933 14.842 4.4898 28.213 13.9134 36.514 27.0029 11.653 18.3801 12 36.3031 7.785 56.6881.936.018 3.504-.133 4.105.009 15.463 3.652 10.501 27.437.126 34.078-4.621 2.957-6.992 3.273-11.715 2.54-3.677 11.987-7.816 16.34-16.884 24.363l.363.297c4.408 3.542 7.504 4.252 12.251 6.861 10.927 6 18.63 16.654 23.993 27.652 1.348 2.765 4.262 9.818 3.303 12.815-2.242.046-3.896-4.979-4.59-6.879-5.891-16.096-15.581-26.911-31.138-34.211-.797 6.133-3.237 7.538-8.406 10-.074.627-.169 1.25-.285 1.872-1.484 7.575-9.018 9.168-15.563 7.428-8.352 8.12-16.006 6.408-22.877-2.306-.263.306-.531.613-.801.91-7.195 7.964-14.618 9.159-22.355 1.364-9.6556 2.655-13.106-1.029-15.8653-9.107-.1556-.458-2.7383-1.918-3.3795-2.206-3.3241-1.497-3.4619-3.881-4.3452-7.09-1.8458.206-3.3909 1.163-5.0884 2-16.5844 9.46-22.1659 20.756-29.3111 37.621-1.1907.664-.6147.65-1.7468.343-.9678-2.123 1.1194-7.153 1.9967-9.217 6.088-14.316 16.4376-27.012 31.0768-33.118 2.7653-1.153 4.5854-2.256 6.7713-4.375-9.4794-7.469-12.8959-12.229-17.1349-23.323-6.4432 1.071-11.0424.046-16.0094-4.911-6.9411-6.925-10.6242-22.33-2.7652-29.808 2.4584-2.339 5.3706-2.609 8.6686-2.335-9.7936-40.902 5.9315-71.8044 46.3544-85.196-.65-12.847 2.28-15.8767 14.583-10.8926-5.443-8.1924-8.106-18.0783-2.435-27.1632.424-.6819.653-.4851 1.392-.54 1.602 1.7895.825 2.5905-.281 4.7644-3.448 6.7828 1.092 21.1538 7.274 25.0715 2.246-.1785 3.407-.2517 5.617.1327l.342-.8329c3.126-7.451 8.138-13.6617 17.151-13.5701 2.059.0229 4.799.9336 6.53.238-2.169-4.7415-10.149-4.1786-14.402-4.1008-1.927-4.9612 13.648-9.4876 16.981-10.1513-5.833-2.3478-13.656-3.8856-18.471.8056-1.555 1.5149-3.764 3.4005-5.801 4.0275-1.022-.6911-.698-.2243-.998-1.3913 1.262-4.5676 6.059-8.5312 9.57-11.5427-.663.1282-1.322.2701-1.978.4257-5.76 1.373-11.276 4.6637-13.989 10.1879-1.183 2.4074-1.185 3.849-2.784 6.4944l-.979.1556-.72-.682c-.367-2.833 1.461-7.8125 3.121-10.0688 4.289-5.84 10.587-8.3526 17.373-9.5792z" fill="#000"/><path d="m124.011 65.8218c2.713 1.2586 5.537 1.0664 8.239-.0686 6.267 4.5035 15.113 10.7966 18.673-.0549 38.493 14.3481 52.241 49.2047 39.433 87.2837-.142.425.584.833.864 1.066 2.827-1.08 5.233-7.286 9.783-4.407 3.961 2.508 5.043 7.094 6.142 11.309-2.013 7.021-4.224 14.531-11.292 18.357-1.807.98-4.891 1.465-6.616.156.307-2.435 1.631-6.925-.134-8.55l-1.13.289c-1.264 2.219-2.163 9.89-3.774 13.945-5.335 13.433-14.798 20.985-27.538 26.783-6.168 2.568-12.634 4.348-19.246 5.305-23.111 3.437-55.5294-6.65-64.7493-30.285-.9003-2.306-2.6161-9.309-4.261-10.54l-.6984.137c-.7277 1.396-.6078 3.136-.6586 4.76-13.2294 4.943-25.965-21.057-14.8339-29.758 5.5834-4.366 10.0379 4.412 13.0979 4.778l.5515-.695c-.2338-2.545-3.7735-6.092-4.6115-9.186-10.2362-37.767 6.7068-68.1479 43.0733-80.6333l.607.3615c.202.5996.674 2.023.947 2.5356.745 1.373 2.052 2.3524 3.579 2.6865 4.656 1.0344 10.855-3.0939 14.553-5.5745z" fill="#fff"/><path d="m142.759 181.669c.549.018.84.174 1.388.343 4.303 6.769-9.795 29.58-26.36 15.154-2.725-2.888-7.389-10.577-5.166-14.477 3.081-1.817 8.12 1.282 13.02 1.286 7.244.01 10.048-.558 17.118-2.306z" fill="#000"/><path d="m125.199 190.401c3.396-.197 11.884-.279 12.3 4.403-1.284 2.234-3.572 2.764-5.995 3.634-6.398.824-8.983-.362-13.376-4.856 2.87-1.812 3.888-2.284 7.071-3.181z" fill="#fff"/><g fill="#000"><path d="m99.3353 147.741c11.0037-.828 11.9497 12.38 4.3237 17.241-10.5673 1.043-11.9559-12.115-4.3237-17.241z"/><path d="m152.839 147.27c10.849-.705 12.02 12.096 4.359 17.126-10.373 1.437-12.039-12.055-4.359-17.126z"/><path d="m152.345 121.265c4.174-.568 16.386 1.062 12.963 7.313-6.157-5.734-6.211-3.226-13.151-5.19l-.423-.819z"/><path d="m99.102 121.315c1.408.055 2.115.261 3.462.577l-.136.068 1.03.513.063.197c-1.195 1.62-7.3142 1.647-11.0434 4.426-1.3249 1.212-.9144 1.212-2.3831 1.409l-.4741-.851c.9368-4.142 5.8431-5.726 9.4816-6.339z"/><path d="m54.4933 158.542c5.7121.188 11.2857 5.438 8.9973 11.035-2.9547-1.611-2.709-4.673-4.9378-7.158-1.1081-1.231-3.3225-.865-4.4525-2.307z"/><path d="m198.01 156.762c1.245.11 1.167.128 2.277.732.343 1.387-.678 1.767-1.992 2.664-3.043 2.078-3.65 3.639-5.1 6.893l-1.264.297-.679-.48c-.879-3.74 3.792-8.39 6.758-10.106z"/><path d="m126.292 165.133c1.861-.201 4.143-.49 5.782.558 1.487.952 3.134 2.527 1.914 4.261-1.639-.297-1.329-.476-2.775-1.954-4.724-1.08-5.236 1.762-8.543 1.181l.067-.838c1.176-1.895 1.581-1.986 3.555-3.208z"/></g><path d="m88.1516 209.788c3.1745 1.886 6.0345 3.515 9.4213 5.017 18.0221 7.872 38.4031 8.407 56.8151 1.496 4.948-1.831 8.836-4.087 13.513-6.293 2.101-.993 4.253 2.723 4.569 4.536.842 4.842-6.372 5.126-7.765 7.249-.91 1.392-.635 4.037-2.511 6.778-2.794 2.197-4.744 2.948-8.225 1.854-6.397-2.037-8.413 6.97-15.123 4.975-5.263-1.565-7.874-5.822-10.498-10.183-6.087 8.97-13.685 15.584-21.877 4.288-9.57 4.6-11.9746.421-14.1838-7.721-.3428-1.263-6.9466-2.334-7.9906-6.394.3428-2.718 1.7557-3.963 3.855-5.602z" fill="#fff"/><path d="m109.226 51.9726c3.149.2609 12.337 2.5355 12.546 6.2427-1.586.984-3.141.2609-5.075 1.3318l-.003.7735c1.889 1.7666 2.536.1282 5.004 1.7117.155 1.492.253.7506-.6 2.2426-6.908 4.4806-14.832 7.8995-13.989-4.9978.211-3.2312 0-4.6912 2.117-7.3045z" fill="#fff"/><path d="m145.155 52.1099c3.718-.1511 3.703 4.8239 3.661 7.4693-.18 11.094-4.953 9.785-11.85 5.9085-1.346-.9291-2.441-1.5973-2.758-3.0847 1.571-1.5881 3.512-.7094 4.868-2.1053-1.713-.9382-2.207-1.1808-3.68-2.412-.913-3.4096 7.083-5.0847 9.759-5.7758z" fill="#fff"/><path d="m127.264 56.1878c2.163-.4119 4.255.9885 4.696 3.1488.442 2.1556-.932 4.2655-3.083 4.7369-1.417.3067-2.891-.1693-3.858-1.2494-.967-1.0802-1.278-2.5997-.813-3.9727s1.633-2.389 3.058-2.6636z" fill="#fff"/><path d="m126.616 244.521c1.561-.581 3.315-.27 4.581.811 1.266 1.084 1.845 2.769 1.513 4.398-.333 1.634-1.525 2.956-3.114 3.46-2.37.746-4.904-.531-5.712-2.883-.809-2.348.403-4.916 2.732-5.786z" fill="#000"/><path d="m127.265 246.814c1.002-.553 2.262-.224 2.867.746.606.975.344 2.248-.595 2.907-.653.453-1.504.512-2.212.151-.709-.366-1.16-1.09-1.173-1.886-.012-.796.416-1.533 1.113-1.918z" fill="#fff"/><path d="m182.454 244.425c3.892.76 4.424 8.596 3.549 11.575l-1.707-.453c-1.693-2.055-1.917-8.421-1.842-11.122z" fill="#000"/><path d="m72.4044 244.348c.9039.379 1.5154.389 1.752 1.048.8581 2.398-.2572 8.357-1.1621 10.586-.6842-.174-1.0558-.353-1.7112-.614-1.4893-2.604.3153-8.036 1.1213-11.02z" fill="#000"/></svg>