<svg fill="none" height="256" viewBox="0 0 256 256" width="256" xmlns="http://www.w3.org/2000/svg" xmlns:xlink="http://www.w3.org/1999/xlink"><clipPath id="a"><path d="m0 0h256v256h-256z"/></clipPath><g clip-path="url(#a)"><path d="m0 0h256v256h-256z" fill="#fff"/><path d="m124.49 15.1805c13.215-1.5154 19.783 6.6451 17.89 19.3507 45.202 10.3015 68.279 47.148 59.972 92.6118-.444 2.431-.948 4.855-1.446 7.276 4.361-.3 8.073.236 10.963 3.604 9.469 11.038.831 33.096-12.746 36.545-2.088.53-4.575.329-6.607.214-4.004 11.846-8.646 17.895-18.023 26.049 10.356 3.324 19.632 9.363 26.862 17.489 7.352 8.366 16.545 25.099 17.634 37.076.099 1.094-.486 1.308-1.134 1.791l-1.164-.227c-1.303-1.539-2.778-8.073-3.651-10.506-7.79-21.709-20.258-35.735-42.311-42.913-5.043 3.237-8.364 4.919-13.933 7.018-4.704 14.428-15.385 18.112-29.192 19.049-8.427.572-2.393 22.697-6.005 27.579l-.767-.345c-1.809-4.852-.866-21.163.562-26.393l.254-.446c-1.206-2.634-17.498-1.988-21.8087-18.367-6.4143-2.419-9.5718-3.79-15.343-7.434-7.9977 3.213-14.9389 6.669-21.4273 12.429-6.3737 5.744-11.5466 12.693-15.22 20.448-1.6061 3.401-7.0275 19.223-8.7753 20.058-3.2699-1.289.833-11.513 1.875-14.059 8.5671-20.931 19.214-32.188 39.8793-41.309-10.1975-8.14-14.7324-14.234-19.0371-26.486-18.9791 5.291-31.7648-23.189-20.8818-36.827 2.7714-3.472 4.7082-2.971 8.7447-3.18 2.4577-2.567-.035-5.92-.4897-9.563-.6668-5.337-1.2894-10.333-1.3506-15.734-.1417-7.798.9551-15.5684 3.2496-23.0229 9.9621-32.5022 38.4624-51.773 71.9999-53.7905 1.914-.345 14.571.8872 15.137.3857 5.45-4.8315-3.658-15.895-10.738-15.3291-6.281.5015-6.58 2.3387-10.835 6.7701-1.013 1.0546-1.79 1.8733-3.164 1.8527-1.466-5.592 6.605-10.0873 11.027-11.6645z" fill="#000"/><path d="m119.037 37.4606c5.019-.6622 13.36-.2987 18.393.3414-5.128 7.5528-11.062 11.6485-20.101 12.8096-2.255.2899-6.833.6931-8.811 1.2327l-.032 1.0401c1.501 1.2096 2.685 1.1324 4.618 1.3661.819.7637 1.663 1.5015 2.53 2.2121 9.586 7.7392 31.165 2.5859 29.819-8.2356-.799-.3527-.586-.5159-1.187.2626-6.344 8.2161-16.918 11.1701-25.925 5.7069 1.192-.2848 2.379-.5937 3.558-.9269 9.005-2.4886 14.555-6.8834 19.14-15.0562 43.458 9.2824 65.6 45.4266 57.715 88.5816-.441 2.411-3.838 14.746-3.693 15.435 2.39-.042 7.268-5.316 10.283-4.194 14.351 5.342 3.578 36.306-11.146 32.845-1.301-2.8 2.222-7.819-1.028-9.491-1.996 1.62-4.133 13.321-5.942 17.553-3.116 6.276-6.412 10.993-11.613 15.941-28.742 27.341-88.6538 23.129-107.4715-13.958-1.4217-2.802-4.3949-12.888-5.6101-14.195l-.7945.128c-.2667.849-1.1457 3.783-1.621 4.383-2.9499 3.721-9.7855-.782-11.9296-2.767-4.7729-4.435-7.512-10.637-7.5748-17.152-.0592-7.294 4.5161-18.103 13.8058-10.35 1.6828 1.404 2.0242 3.089 4.3871 3.988l.7122-.46c.7147-4.624-2.9567-5.03-3.97-8.313-15.4316-49.9883 13.9213-93.174 63.4884-98.7274z" fill="#fff"/><path d="m110.706 172.406c9.714 2.508 17.41 4.174 27.132 1.458 1.89-.528 4.345-.876 6.289-1.054 4.819 2.426-.539 11.742-2.658 14.998-1.757 2.011-3.994 3.97-6.445 5.067-4.191 1.888-8.963 2.015-13.249.355-7.4-2.85-14.633-13.06-11.069-20.824z" fill="#000"/><path d="m125.927 182.128c3.474-.026 11.77.383 11.133 5.379-2.002 2.539-4.551 2.917-7.634 3.736-6.286.19-8.678-1.495-12.999-5.552 3.594-2.204 5.36-2.927 9.5-3.563z" fill="#fff"/><g fill="#000"><path d="m96.5042 135.56c11.1008-.792 13.0428 14.3 3.6458 19.173-11.4736-.207-12.4169-13.367-3.6458-19.173z"/><path d="m155.711 135.118c10.881.807 11.614 14.587 2.815 19.441-11.573-.815-12.248-14.93-2.815-19.441z"/><path d="m94.821 106.839c.8609-.027 1.7219-.034 2.5828-.023 1.8048.04 2.3048.269 3.5002 1.563-.9673 2.258-6.1258 1.232-10.62 3.545l-.5329.28c-1.2265 1.081-1.8625 1.856-3.4458 2.253l-.8677-.519.1025-1.145c2.622-4.079 4.5138-4.833 9.2809-5.954z"/><path d="m154.586 106.844c4.891-.279 11.383.405 14.404 4.783.399 2.293.586 1.22-.76 3.298-7.396-6.832-9.805-3.564-14.51-5.772l-.233-.951z"/><path d="m47.7039 146.853c5.8711.235 12.0738 7.035 9.5172 12.28-5.177-2.988-2.0829-7.591-9.0204-9.522-.9284-.258-.673-.096-1.1456-1.086z"/><path d="m126.333 154.691c3.544-.069 6.978.574 8.16 4.397l-.537.796c-2.09-.101-1.934-.518-3.993-2.013-3.773-.319-6.508 2.596-8.863 1.243 1.025-2.525 2.906-3.375 5.233-4.423z"/><path d="m202.347 146.345c2.451.1 1.508-.353 3.143.882-.733 2.798-4.056 2.137-6.947 8.645l-.307.703-1.179.825-.834-.276c-1.74-4.008 3.1-8.692 6.124-10.779z"/></g><path d="m152.151 212.437c-.047 6.954-12.186 12.463-18.306 13.313-9.626 1.337-17.44-.055-25.396-5.756-2.631-2.84-3.114-3.807-4.978-7.141 17.964 4.877 30.928 4.677 48.68-.416z" fill="#fff"/><path d="m130.077 238.927c1.697-.706 3.642-.44 5.087.696 1.444 1.135 2.162 2.963 1.876 4.778-.285 1.815-1.53 3.334-3.253 3.971-2.591.958-5.473-.333-6.483-2.905-1.01-2.571.222-5.479 2.773-6.54z" fill="#000"/><path d="m130.851 241.412c.809-.414 1.781-.342 2.521.186.741.527 1.125 1.423.997 2.323-.127.9-.745 1.654-1.603 1.956-1.209.424-2.539-.161-3.044-1.338s-.012-2.544 1.129-3.127z" fill="#fff"/><path d="m72.2628 241.342c.7924.509 1.6668.908 1.6003 2.128-.2054 3.779-.4011 11.661-2.8974 14.357l-1.3923-1.392c-.7462-3.724.9577-11.86 2.6894-15.093z" fill="#000"/><path d="m184.31 241.366 1.326.735c2.082 3.035 3.34 11.876 2.74 15.402l-1.956-.567c-1.79-2.459-3.04-12.763-2.11-15.57z" fill="#000"/></g></svg>