<svg fill="none" height="256" viewBox="0 0 256 256" width="256" xmlns="http://www.w3.org/2000/svg"><path d="m0 0h256v256h-256z" fill="#fff"/><path d="m159.493 14.2013c1.942-.1719 3.892-.2348 5.838-.1845 22.442.5327 34.421 24.0276 35.322 43.5886.193 4.2318 1.217 12.2843 2.718 16.0128 5.427 13.4797 16.474 23.084 15.224 38.9878-.134 14.985-9.524 21.792-9.436 34.882.058 8.744 9.759 14.452 7.989 26.015-1.56 10.179-10.401 11.53-11.164 20.169-.436 4.954 5.872 3.624 7.574 5.277 1.12 7.142-14.293 7.855-17.745 3.707-.503-.604-1.48-1.455-2.067-2.034l-.172.969c.637 1.715 2.197 2.864 3.472 4.194 7.432 7.746-.901 14.452-6.773 19.649l.063.642c4.374 2.327 10.506 6.123 13.152 10.262 1.582 2.475 4.199 5.109 3.733 7.889l-.952.625c-1.237-.377-7.595-11.538-13.471-14.041-10.385-4.417-11.915-2.668-21.578 1.619-10.196 4.521-19.977 9.499-30.558 12.347.008 2.562.449 9.222-1.195 10.908-2.471-.402.117-12.502-2.068-15.069-2.621 1.049.059 12.05-2.441 15.384l-.633-.587.146.289.697.063-.919-.465c-.784-1.816-.503-6.396-.47-8.59-1.845.373-3.862 1.12-5.376-.193l.381-.78c1.607-1.262 3.133-1.422 5.146-1.904.223-2.479.097-6.174 4.345-5.57 1.875.269 1.766 2.018 2.731 3.46 7.796-1.014 28.326-12.347 36.878-15.073 2.135-.679 8.023-1.04 8.992-1.837 1.594-5.922-4.626-9.856-9.609-11.013-1.61-22.61-22.773-13.056-24.631-16.445 4.018-3.8 14.771-2.189 19.154.348 5.511 3.187 7.05 7.969 8.56 13.563 1.56.248 7.549-3.204 9.894-4.185-2.102 3.129-3.129 3.674-5.671 6.287 3.175 2.919 4.412 5.653 5.771 9.558 4.006-5.696 6.111-4.773 6.933-12.687-2.692-3.099-5.502-6.073-6.387-10.229-.621-2.919-.789-12.142 2.713-12.775 1.38 2.357-.885 9.453 2.818 12.032 2.647 1.841 9.408 5.39 11.84 1.846-13.177-9.73 1.795-16.449 5.255-25.659 2.836-7.545-1.979-14.063-5.439-20.413-2.005-3.67-1.56-13.958-.202-18.084 7.826-15.753 11.849-30.038 1.67-46.0845-2.987-4.7015-8.099-11.9152-9.441-17.7659-2.89-12.5737-2.026-22.8365-7.168-35.2844-7.788-16.6462-24.015-26.3553-42.33-17.8834-5.343 2.4703-8.258 7.2598-10.028 12.6995 1.183-.0629 2.365-.0797 3.548-.0419 9.957.3648 22.203 6.0814 21.486 17.703 22.74 19.3723 30.612 49.8626 19.347 77.6446 8.267 9.126 2.714 25.134-6.165 31.853-1.623 1.233-3.284 2.051-5.1 2.961 1.925 8.984-.591 10.158-5.079 17.468-1.518 2.471-.071 3.922.801 6.367l-.331.545c-.91-.042-2.647-.44-3.02-1.346-3.062-7.495 9.843-15.115 4.71-22.702-1.564.977-2.089.826-3.838.662-1.161 1.334-3.468 7.969-4.567 10.099-3.967 7.709-10.061 12.885-16.424 18.412-.23 5.272-.134 10.561.286 15.824 2.705 1.145 5.385 2.362 8.027 3.649 1.514-1.552 2.73-2.617 3.804-4.504-.16-.969-.26-1.175-.633-2.08.624-.94.226-.533 1.438-.99 10.418 5.666-38.925 38.954-41.236 38.979.101.151-.704-.679-.625-1.468-.13-1.111-4.483-3.808-5.368-4.362-5.196-3.284-36.9913-27.315-28.2342-32.285l.9437.428c.6794 1.216.5117.52.0419 2.248.2726 1.618 1.6776 3.221 2.6758 4.609 2.5836-1.326 5.3223-2.45 7.9897-3.603.1174-4.467.0252-9.206.0084-13.693-13.0225-8.925-19.1206-16.038-24.4806-30.109-.1803-.479-3.0868.025-4.7519-1.531l.1007-.428c1.4511-.541 2.248-.713 3.4013-1.766.6837-1.702-.0419-3.082-.7423-4.747l-.6207-.197c-4.1395 3.85-5.7794 13.039-2.571 17.833 2.0929 3.12 6.895 8.128 4.6135 11.89-.4362.717-1.3463 1.53-2.227 1.715-.6585-1.468.4949-5.247.0419-5.935-5.7165-8.732-8.7572-7.876-5.9346-19.259-10.787-6.484-18.6969-24.094-8.6103-34.076-5.8003-13.622-7.5115-26.783-1.7992-41.0597.973-2.4325 3.5691-5.8004 3.1371-8.1364-.302-1.3295-.1216-2.3906.3355-3.6866 10.7955-30.5116 47.8623-48.4788 78.0973-38.5725 1.774-1.7783 2.135-2.0174 4.328-3.2546 2.701-12.1921 10.468-17.401 22.111-19.4939z" fill="#000"/><path d="m110.414 73.7273c7.059-.6836 10.28.2475 15.56 4.8777 3.418 2.9987 10.989.3565 13.908 2.5206 7.838 5.8129 9.537 17.7534 15.383 25.6384 4.329 5.842 6.405 8.056 12.218 12.515.859 6.547.964 11.37 1.237 18.009l.751.549c2.592-.398 2.755-5.62 5.964-7.679 9.583-6.161 12.078 8.698 9.696 15.216-2.642 7.218-5.49 10.884-12.213 14.587-1.359-3.196-3.183-7.843-4.823-10.762-2.114 1.233-1.954 4.773-2.466 7.121-.902 4.182-2.223 8.263-3.943 12.18-7.012 15.66-27.617 33.066-45.417 33.133-6.589-.956-12.871-4.664-18.2438-8.149-15.6437-10.15-22.9539-20.614-26.8795-38.736-.2894-1.334-.994-4.874-1.9838-5.771l-.6082.096c-1.9712 2.449-4.2737 7.625-5.6409 10.611-9.0382-5.809-15.6144-19.611-7.6919-29.631 3.7663-4.76 9.8728 5.809 11.9237 8.304l.9855-.029c.4404-.931.604-13.647.9479-16.508 11.2023-8.296 13.3077-15.249 18.7725-27.3658 4.949-10.959 9.9357-16.9984 22.7105-16.3189 1.267.0671 5.834.4236 6.849.0503l-.163-.7885c-2.232-2.1641-6.539-2.1725-9.747-2.4913l.172-.3481z" fill="#fff"/><g fill="#000"><path d="m137.034 110.249c5.666-.612 21.255.31 21.641 7.881l-.675.729c-1.376.277-2.378-.356-3.724-.91-10.997-3.02-13.878-.26-22.506-1.057-4.294-4.081 2.047-6.077 5.264-6.643z"/><path d="m141.908 126.996c2.797-.118 8.748.675 8.274 4.462-.616.038-1.14.025-1.748-.042-.122 5.025 1.841 10.267-5.142 12.301-6.975-2.151-4.727-7.884-4.014-13.161-1.3.219-1.636.424-2.86.89l-.529-.39.29-1.179c1.543-1.862 3.443-2.261 5.729-2.881z"/><path d="m92.6066 110.706c3.3343-.419 11.9024-.583 12.6874 3.787.222 1.238.083 1.204-.562 2.08-3.058 1.565-10.9888.139-16.6046.814-2.8226.453-9.1136 3.242-10.7242 2.148-.8346-5.423 11.0975-8.196 15.2034-8.829z"/><path d="m93.2944 127.398c2.2522-.021 5.7752.525 7.1256 2.525.138.587.348 1.221.042 1.753-.952 1.514-.235 2.844-.314 4.53-.2144 4.555-1.6026 8.262-6.8032 7.625-5.5236-4.152-2.9358-7.378-3.0575-12.524l-.6123-.268-2.6129 1.187-.3397-.382.3858-1.392c1.7531-1.951 3.6698-2.437 6.1862-3.054z"/><path d="m112.583 133.346c4.924 1.799-.264 16.633-.885 20.257-.885 5.142 4.282 3.892 3.443 8.342-10.095-2.546-4.827-12.004-3.376-18.542.696-3.125-.105-6.824.818-10.057z"/><path d="m131.129 170.517c.21.059 1.04.529 1.266.654l.231.772c-5.435 5.78-18.588 5.142-25.588 2.802-.708-.671-.654-.629-.868-1.594 1.565-1.564 9.533 1.556 13.333.973 5.28-.809 6.97-1.019 11.626-3.607z"/><path d="m178.383 136.013c1.804.428 1.204-.05 2.21 1.053-.385 1.044-3.346 2.852-4.781 4.332-.826 2.596 1.799 2.923.218 5.175-1.241.189-.948.034-2.332-.939l-1.14 1.162-.831-.046c-1.745-3.578 3.603-9.018 6.656-10.737z"/><path d="m57.3556 137.271c4.6093.009 9.1346 5.268 8.4803 9.445l-.6123.432-1.4469-.805c-.5914.759-.6501.86-1.3798 1.468l-.7214-.441c-.4613-1.472.1132-2.151.5243-4.001-.8011-2.52-3.4937-3.074-5.1419-4.714z"/></g><path d="m110.88 37.3314c6.543-.9856 15.103.2643 21.268 2.5794 1.464.5536 3.661 2.2186 4.806 2.4954 2.576.7424 6.535.2852 8.992.9647 27.916 7.696 44.143 39.5162 40.704 67.1171-.483 3.896-2.102 13.333-4.362 15.757-5.176-1.019-6.899-.113-10.448 3.674l-.427.461c-.239-3.024-.797-6.073-.713-9.08 1.702-.18 1.925.088 3.032-.788-.214-1.028-3.649-3.204-4.735-3.943-9.244-6.282-13.849-14.352-18.064-24.4844-3.804-9.1346-7.474-15.0273-18.441-14.6414 1.258-2.6297 4.24-9.7721 1.116-11.9614-2.081 2.3445-1.162 11.1226-5.44 11.3029l-1.611-1.6776c-.616-.4823-1.262-.973-1.929-1.384-4.747-2.9065-10.464-3.7914-15.866-2.4577-20.4794 4.8777-22.7358 24.619-32.4533 39.5706-3.1498 4.844-11.5168 9.764-12.4395 11.269l.1677.663c1.3547.449.9898.139 1.9502 1.023-.1425 2.454-.2642 4.912-.369 7.365-3.5817-4.089-4.6134-4.454-9.8392-4.081-6.5637-15.593-6.8531-31.0564 1.9166-46.2179 1.2205-2.1054 7.8136-10.0782 7.7926-11.5042l-.7508-.1636c-2.529 1.1743-5.2257 4.7687-7.0501 6.958 8.2706-22.3794 30.1215-36.1191 53.1928-38.8159z" fill="#fff"/><path d="m130.428 56.8002c2.869.9394 3.884 1.9082 3.435 5.0202-1.929-1.3295-4.24-2.5248-3.435-5.0202z" fill="#000"/><path d="m142.243 194.813c1.673 2.018-.424 18.785 4.001 21.121l.738-.583c.545-1.509-.067-2.831-.528-4.412l5.766 2.785c-10.011 9.688-21.448 17.619-32.801 25.609-4.911-3.745-10.368-7.415-15.447-11.257-5.2212-4.051-10.3128-9.051-15.1485-13.614l5.7626-2.952c-.2517 1.728-.9605 3.607.7843 4.504 3.1161-2.11 2.6045-15.413 2.5583-19.162 18.3403 11.6 26.7533 10.027 44.3143-2.039z" fill="#fff"/><path d="m141.006 35.5658c7.453-.5494 14.889 1.665 19.884 7.6331.889 1.0653 2.08 2.8562 1.933 4.2905l-.553.2097-1.678-1.0401c-7.344-4.7099-13.71-6.5972-22.249-6.7985-.797-.0168-1.586-.8892-1.984-1.5476l.273-.8934c1.509-1.1743 2.52-1.3168 4.374-1.8537z" fill="#fff"/><path d="m85.5187 195.937c1.816.155 2.2941.189 3.2923 1.749-2.1683 3.703-23.1259-3.867-23.0546 16.73-4.1856 1.271-12.2088 6.95-8.5432 11.723 1.6315.289 7.3773 1.203 8.6019 1.706 5.2006 2.148 29.0102 14.252 33.1203 13.635 1.0359-2.202.7843-2.294 2.7056-3.296 2.105-.067 3.686.558 3.925 2.923.403 4.035 3.431 2.634 5.561 5.276l-.377.642c-1.715.574-2.932.113-4.739-.256.025 2.462.474 7.272-.839 8.921l-.759-.105c-1.988-2.768.268-11.785-1.372-15.107l-.851-.092c-2.009 2.109.373 11.735-1.409 15.077l-1.443.415c-.3523-3.732-.239-7.205-.1845-10.942-15.455-4.634-26.8083-12.196-40.1285-16.348-16.4616 3.942-17.552 14.943-20.9995 16.273l-.8514-.592c-1.858-5.959 11.6594-14.989 16.6754-17.007-.9939-7.675 2.6129-11.822 9.0508-15.178 1.9753-13.811 10.4557-15.811 22.6184-16.147z" fill="#000"/></svg>