<svg fill="none" height="256" viewBox="0 0 256 256" width="256" xmlns="http://www.w3.org/2000/svg"><path d="m0 0h256v256h-256z" fill="#fff"/><path d="m146.925 14c.69.2002 1.38.4111 2.06.6322 11.67 3.7929 18.602 10.8736 23.99 21.5377-.009-2.6686-.61-5.5307 1.958-6.9486 2.473.4373 4.729 4.9532 5.815 7.1101 2.14 4.2471 2.237 7.9172 2.068 12.5425 6.696.618 15.132 4.002 17.236 11.0124-.738 3.5651-4.44 2.1414-7.092 1.6039 6.069 7.1271 13.526 23.6181 8.73 32.4599l-.895.2184c-1.094-.6994-1.059-.731-2.242-1.2231-1.014 3.865-.142 8.1606-1.344 12.2796-1.401 4.823-4.391 7.583-5.979 12.263.511.514 1.01 1.044 1.49 1.589 8.498 9.794.28 31.762-11.79 34.995-2.176.583-3.782.362-5.962.122-1.957 7.246-3.292 11.22-7.123 17.587 3.324.121 6.638.347 9.944.674 17.325 1.766 27.028 8.574 24.955 27.428 7.23 5.683 9.281 13.687 5.908 22.236 10.407 7.404 18.682 19.416 19.02 32.524-.867 1.217-.307.881-1.655 1.169-.943-1.485-2.309-6.436-2.905-8.544-2.394-10.106-14.121-26.977-26.147-24.748-11.074 2.051-24.773 10.259-35.424 14.832-4.454 1.912-8.356 3.469-12.956 5.039l.009 1.668c.004 2.72.369 9.949-1.295 11.615l-.676-.243c-2.234-4.891 1.584-17.464-2.007-19.094-3.848 2.311-.854 15.903-2.865 19.477l-.556-.176c-2.06-3.091-1.161-7.282-1.063-10.958-2.167.406-4.988 1.353-6.808-.063l.365-.864c1.807-1.406 4.067-1.674 6.367-2.209.73-7.709 5.25-12.054 9.005-2.623 2.701.197 25.298-11.105 29.511-12.983 9.125-4.064 17.231-8.841 27.326-5.259 2.866-8.501.823-14.36-6.504-19.398 4.2-24.67-15.314-25.732-33.707-26.427l-5.868 6.824c-.178 5.15-.16 9.847-.098 14.99 2.781.9 5.566 2.128 8.271 3.251 2.491-2.532 6.767-6.485 8.12-9.761.458-1.106-.521-2.174-1.197-3.34.253-1.146-.031-.659 1.072-1.363 1.255.122 1.535.606 2.5 1.473.419.984.561 1.664.339 2.733-2.243 10.827-34.655 35.137-44.238 42.578-3.501 2.721-6.896 5.752-10.584 8.216-2.438-2.505-1.967-3.305-5.308-5.939-3.617-3.343-45.3055-39.713-32.0916-42.838.5917 1.113.2491 2.071.1201 3.363-.2491 2.439 3.2746 6.107 4.8807 8.04 3.279-2.06 5.2277-2.823 8.8228-4.161l-.5074-9.736c-3.8262-2.691-5.8595-4.578-9.2808-7.805-10.4777.554-26.054 4.015-29.1283 15.833-.5695 2.183-.5428 4.467-.5651 6.714-4.3468 2.388-6.5624 5-8.3376 9.819-.703 1.906-.6541 4.367.5249 6.059-.0089-.009.6407.76.7742.745 4.2667-.509 5.7171-.987 9.9972.367 10.0149 3.168 27.0862 14.671 36.5359 17.219l.579-.382c.8-3.155 2.54-6.184 6.624-3.734 1.922 1.153 1.856 4.917 1.94 7.071 2.247.603 4.721.94 5.98 2.897l-.41.696c-1.859.622-3.617-.007-5.623-.417l-.112 10.338c-.729 1.166-.226.826-1.499 1.128l-.743-.617c-1.806-5.079 2.091-15.542-1.837-19.298-3.644.812-.45 17.338-2.928 20.179l-.583-.327c-1.441-2.999-.916-10.456-.85-14.088-4.7022-1.668-9.3026-3.61-13.7739-5.818-9.2542-4.674-19.3404-10.925-29.2886-13.077-11.4965 3.516-18.8286 10.418-23.6247 21.504-1.4282 3.302-2.318 6.875-3.6572 10.213-.5962 1.48-.3337 1.05-1.7441 1.597l-.7385-.503c-.2981-1.565-.1379-2.725.307-4.273 4.1421-14.444 9.5701-21.662 22.0987-29.224-1.0944-2.659-1.4148-5.574-.9299-8.408.9566-5.586 4.2489-8.415 8.5156-11.456-.1156-17.284 15.5808-21.903 29.8135-23.636-6.1709-6.801-8.3821-12.378-11.1983-20.936-17.3427 2.152-28.8125-26.49-15.9101-36.857-2.5048-5.6-3.012-9.465-4.9875-14.958-7.1497-.774-5.5124-15.8908-4.3467-20.8929-1.7263 1.6412-2.576 3.1522-4.9697 2.3892-.6495-.86-.9921-1.6943-.9476-2.7767.4849-11.1095 3.9597-16.2816 10.6334-24.0444-1.9799.5126-3.9731.9877-5.9752 1.4255-1.2903-.4951-.8053-.0707-1.4371-1.3917.0623-.6784.1602-1.4699.4983-2.063 6.2065-10.9092 11.7457-14.4681 22.4369-18.9839-2.3224-1.4914-7.2832-4.999-7.1453-7.9332 1.7886-1.8348 8.9383-.7541 11.9014-1.2765 12.631-2.2272 23.1131-9.6069 35.5266-12.7258 13.992-3.5147 24.519-1.3774 37.074 4.874-1.682-3.2078-3.986-5.0008-2.185-8.3496z" fill="#000"/><path d="m132.822 73.8792c-.071 2.8145-4.565 3.6964-5.099 6.7787 1.13 2.5631 3.43 1.8219 5.811 1.7027 7.194-.3586 12.662-2.7651 18.753-6.4392-.837 2.0826-1.807 3.7866-1.348 5.9275 2.598 3.1994 8.462-1.1808 11.202-2.8163 1.001 10.2713 4.178 15.8842 11.417 22.9644 1.197 9.015 1.713 17.459 1.962 26.52.013.505.872.662 1.348.859 1.788-.883 4.071-10.046 7.563-10.106 16.649-.288 6.363 29.998-4.903 32.569-4.96 1.133-3.63-7.17-3.799-10.2-4.569 10.151-4.467 20.884-11.817 30.337-8.209 10.558-21.792 22.795-35.299 24.949-18.366 1.691-43.686-20.66-48.1618-38.067-.7519-2.935-2.8652-13.603-4.8851-15.06l-.8542.255c-1.6462 2.734.6184 5.345.8097 9.369-1.2591 2.352-3.973 1.037-6.5579-.211-8.3555-4.036-16.4573-25.952-5.081-30.188 4.0042-1.492 6.6915 6.868 9.8415 9.215l.6095-.372c.3915-1.991.1602-4.078.0223-6.108-.6185-9.111.0445-18.138.4983-27.2538 4.805-3.2497 7.5056-6.5224 9.7791-11.7773 6.3133-1.6782 10.9937-4.4873 15.8346-8.7558 3.039.5201 10.344.4409 11.252.723-.605.7794-.895 1.2052-1.411 2.0466l.481.5276c7.198 1.3058 15.985-3.763 22.032-7.3891z" fill="#fff"/><g fill="#000"><path d="m143.989 101.078c6.496-.597 14.028-.193 19.491 3.751 1.749 1.262 4.401 3.648 2.71 5.813-1.962.268-2.002-.131-4.142-.943-10.122-2.834-14.001-1.131-23.647-1.372-.814-.342-1.477-.96-1.878-1.745-1.806-3.582 5.259-5.172 7.466-5.504z"/><path d="m99.2308 102.444c4.6492-.503 10.0462-1.032 12.3682 3.651-.155 4.942-15.5004 3.719-20.737 4.901-2.4248.561-5.3122 1.89-7.8438 2.729-1.3214-.44-.7118-.079-1.6061-1.539.3559-5.74 12.9647-9.069 17.8187-9.742z"/><path d="m100.343 120.178c1.678.048 5.023.166 5.935 1.768 2.661 4.687 1.099 14.813-5.912 13.993-4.9211-3.791-2.6476-6.965-2.9413-11.729l-.6006-.284-2.4203.954-.4538-.397.2981-1.287c1.5127-1.912 3.8039-2.465 6.0949-3.018z"/><path d="m146.756 118.818c2.848-.283 10.554-.526 10.033 3.996-.908.102-.939.11-1.797.423-.08 5.33 1.125 6.911-3.079 11.03-8.467 1.407-5.775-8.011-5.829-12.231-1.557.493-1.864.894-3.176.538l-.031-1.127c1.072-1.492 2.158-1.786 3.879-2.629z"/><path d="m118.22 125.072 1.166.419c3.648 4.255-1.233 16.776-2.038 21.425-.503 2.905 3.595 3.619 4.324 7.696-4.44-.435-6.148-3.404-7.385-7.283 1.526-5.042 2.905-9.75 3.457-15.013.253-2.392.115-4.459.422-6.874z"/><path d="m139.291 163.213c.204.056.827.444 1.041.568l.062 1.094c-2.905 6.047-20.871 5.337-26.708 3.836-.458-.407-.556-.677-.903-1.214l.249-.871c1.842-.846 7.439.805 10.478.75 6.624-.121 10.064-1.124 15.781-4.163z"/><path d="m63.5491 130.611c4.5247-.221 10.4465 6.354 9.6501 9.814l-.8097.477c-3.1678-1.5-1.8731.501-4.2133-.415l-.267-1.07c1.6595-4.454-.6718-4.525-4.2578-7.118z"/><path d="m185.441 126.565c1.215.268 1.139.221 2.051 1.059-.302 1.917-4.128 2.58-5.085 5.782.436.845.774 1.568 1.161 2.436-.471 1.337-.031.903-1.161 1.517l-1.45-.934-1.055 1.152-.89.014c-2.291-3.421 3.6-9.276 6.429-11.026z"/></g><path d="m150.676 18.5421c7.893 2.8675 16.333 10.7215 19.403 18.7673.952 2.4963 1.179 6.2029 2.874 8.334l.729-.0147c2.296-2.8011 1.838-8.6766 1.767-12.2951 4.823 7.0679 4.84 10.7971 3.51 18.7949 7.484-.2501 11.964.3385 16.867 6.618l-4.138-.194c-1.958-.0841-3.381-.2687-4.832 1.0665.338 1.0638 3.186 3.6202 4.191 4.6862 6.852 7.2601 8.507 15.389 8.725 24.9497-1.361-1.3454-3.132-3.7025-5.099-3.3057-.685 1.6943 1.718 10.6365.405 14.7548-1.895 5.945-4.582 9.274-6.611 15.189-.788-.059-1.58-.061-2.372-.008-3.848.23-5.281 1.821-7.732 4.511-.178-6.447-1.023-13.179-1.74-19.615-10.633-11.0273-11.732-15.8212-11.478-30.7992-3.92 5.5703-5.157 6.5358-10.963 9.9816 1.851-5.1543 4.458-10.2681 5.53-15.5456-10.335 9.1576-11.501 14.4685-27.366 14.7746 2.211-2.358 9.997-12.7805 7.341-15.5252-1.348.5348-4.16 4.2356-5.886 5.7265-6.167 5.3367-10.994 6.961-18.549 9.1522 1.682-1.7178 2.968-3.5508 4.405-5.4706-5.793 1.5777-7.559 2.5787-13.752 2.3678-7.021-.7052-7.5415-1.7205-13.7658-4.6675-1.2013-.5673-1.6685-.7368-2.6784-.3213.2135 3.0366 5.1787 5.2277 7.559 6.4357-6.8828 5.5031-15.6519 8.7078-24.5012 7.349-1.7174-.2643-1.6551-.0565-2.3447 1.248l.565.8409c2.8564 1.365 6.9496 1.2804 10.0773 1.2893-4.587 7.4919-7.1987 6.5037-10.9715 11.4022.6673.771 1.9531 2.1976 1.8819 3.2216-.4983 7.162-.6362 14.04-.4938 21.219-3.5593-3.381-4.0487-2.353-7.1186-4.245-4.111-2.533-4.0354-16.144-6.5313-18.753-.8231-.06-1.5883.036-2.4025.164-3.6749-3.4557-1.7085-13.9079.6496-18.0656.5072-.8899.6763-1.2329.961-2.282-1.7441-2.37-6.34 1.8669-8.1553 3.1731.792-7.9941 3.6884-15.0558 9.7614-20.5971 1.6684-1.5221 4.507-3.3827 5.4012-5.1855l-.2625-.597c-2.4603-.848-7.8794.5352-10.5043 1.0882 11.5098-17.9468 25.6224-15.7877 27.8692-18.6382-.6807-2.0857-5.8595-2.1992-8.044-3.4218-1.4637-.8213-2.2957-1.3401-3.7017-2.3011 20.7863-1.5314 27.2865-9.0441 46.071-13.7891 9.218-2.3287 22.307-.6118 30.405 4.3138 1.886 1.1457 4.56 3.1416 6.611 4.491l.716-.4071c.859-2.221-1.401-7.3887-2.282-9.8655z" fill="#fff"/><path d="m156.135 185.045c1.001 1.619-.018 16.887 2.474 23.723-11.114 9.662-23.078 18.115-33.564 27.333-4.667-3.916-10.331-9.588-14.749-13.856-2.945-2.887-5.53-5.483-8.324-8.545 2.104-7.701 1.575-14.196 1.272-22.103 6.358 4.009 12.151 7.878 19.834 8.576 13.276 1.207 23.443-7.097 33.057-15.128z" fill="#fff"/><path d="m98.9107 202.27.9298.125c1.1525 1.542 1.0725 7.04-.7697 8.22l-1.1167-.959-4.1821-4.527z" fill="#fff"/><path d="m159.979 199.724c1.811.624 4.56 1.055 4.979 2.98l-1.357 1.672c-.806.78-1.037.916-1.976 1.544l-.761-.219c-.912-1.472-.796-4.127-.885-5.977z" fill="#fff"/></svg>